<mxfile host="app.diagrams.net" modified="2024-04-21T19:13:12.832Z" agent="Mozilla/5.0 (Windows NT 10.0; Win64; x64) AppleWebKit/537.36 (KHTML, like Gecko) Chrome/124.0.0.0 Safari/537.36" etag="6YYbRrBg6bsQKuxbuMwG" version="24.2.5" type="device" pages="14">
  <diagram name="1" id="YQrQhglxHsUmq3wfNuLw">
    <mxGraphModel dx="1434" dy="780" grid="1" gridSize="10" guides="1" tooltips="1" connect="1" arrows="1" fold="1" page="1" pageScale="1" pageWidth="827" pageHeight="1169" math="0" shadow="0">
      <root>
        <mxCell id="-gNgaxF5dDmcWoJVMX3Y-0" />
        <mxCell id="-gNgaxF5dDmcWoJVMX3Y-1" parent="-gNgaxF5dDmcWoJVMX3Y-0" />
        <mxCell id="-gNgaxF5dDmcWoJVMX3Y-2" value="Tamanho = 10" style="text;html=1;align=center;verticalAlign=middle;whiteSpace=wrap;rounded=0;fontSize=16;fontStyle=1" vertex="1" parent="-gNgaxF5dDmcWoJVMX3Y-1">
          <mxGeometry x="354" y="50" width="119" height="30" as="geometry" />
        </mxCell>
        <mxCell id="-gNgaxF5dDmcWoJVMX3Y-5" value="" style="whiteSpace=wrap;html=1;aspect=fixed;fontStyle=1" vertex="1" parent="-gNgaxF5dDmcWoJVMX3Y-1">
          <mxGeometry x="172" y="230" width="50" height="50" as="geometry" />
        </mxCell>
        <mxCell id="-gNgaxF5dDmcWoJVMX3Y-6" value="0" style="text;html=1;align=center;verticalAlign=middle;whiteSpace=wrap;rounded=0;fontSize=16;fontStyle=1" vertex="1" parent="-gNgaxF5dDmcWoJVMX3Y-1">
          <mxGeometry x="187" y="210" width="20" height="20" as="geometry" />
        </mxCell>
        <mxCell id="-gNgaxF5dDmcWoJVMX3Y-7" value="" style="whiteSpace=wrap;html=1;aspect=fixed;fontStyle=1" vertex="1" parent="-gNgaxF5dDmcWoJVMX3Y-1">
          <mxGeometry x="217" y="230" width="50" height="50" as="geometry" />
        </mxCell>
        <mxCell id="-gNgaxF5dDmcWoJVMX3Y-8" value="" style="whiteSpace=wrap;html=1;aspect=fixed;fontStyle=1" vertex="1" parent="-gNgaxF5dDmcWoJVMX3Y-1">
          <mxGeometry x="267" y="230" width="50" height="50" as="geometry" />
        </mxCell>
        <mxCell id="-gNgaxF5dDmcWoJVMX3Y-9" value="" style="whiteSpace=wrap;html=1;aspect=fixed;fontStyle=1" vertex="1" parent="-gNgaxF5dDmcWoJVMX3Y-1">
          <mxGeometry x="317" y="230" width="50" height="50" as="geometry" />
        </mxCell>
        <mxCell id="-gNgaxF5dDmcWoJVMX3Y-10" value="" style="whiteSpace=wrap;html=1;aspect=fixed;fontStyle=1" vertex="1" parent="-gNgaxF5dDmcWoJVMX3Y-1">
          <mxGeometry x="362" y="230" width="50" height="50" as="geometry" />
        </mxCell>
        <mxCell id="-gNgaxF5dDmcWoJVMX3Y-11" value="" style="whiteSpace=wrap;html=1;aspect=fixed;fontStyle=1" vertex="1" parent="-gNgaxF5dDmcWoJVMX3Y-1">
          <mxGeometry x="412" y="230" width="50" height="50" as="geometry" />
        </mxCell>
        <mxCell id="-gNgaxF5dDmcWoJVMX3Y-12" value="" style="whiteSpace=wrap;html=1;aspect=fixed;fontStyle=1" vertex="1" parent="-gNgaxF5dDmcWoJVMX3Y-1">
          <mxGeometry x="460" y="230" width="50" height="50" as="geometry" />
        </mxCell>
        <mxCell id="-gNgaxF5dDmcWoJVMX3Y-13" value="" style="whiteSpace=wrap;html=1;aspect=fixed;fontStyle=1" vertex="1" parent="-gNgaxF5dDmcWoJVMX3Y-1">
          <mxGeometry x="505" y="230" width="50" height="50" as="geometry" />
        </mxCell>
        <mxCell id="-gNgaxF5dDmcWoJVMX3Y-14" value="" style="whiteSpace=wrap;html=1;aspect=fixed;fontStyle=1" vertex="1" parent="-gNgaxF5dDmcWoJVMX3Y-1">
          <mxGeometry x="555" y="230" width="50" height="50" as="geometry" />
        </mxCell>
        <mxCell id="-gNgaxF5dDmcWoJVMX3Y-15" value="" style="whiteSpace=wrap;html=1;aspect=fixed;fontStyle=1" vertex="1" parent="-gNgaxF5dDmcWoJVMX3Y-1">
          <mxGeometry x="605" y="230" width="50" height="50" as="geometry" />
        </mxCell>
        <mxCell id="-gNgaxF5dDmcWoJVMX3Y-16" value="1" style="text;html=1;align=center;verticalAlign=middle;whiteSpace=wrap;rounded=0;fontSize=16;fontStyle=1" vertex="1" parent="-gNgaxF5dDmcWoJVMX3Y-1">
          <mxGeometry x="232" y="210" width="20" height="20" as="geometry" />
        </mxCell>
        <mxCell id="-gNgaxF5dDmcWoJVMX3Y-17" value="2" style="text;html=1;align=center;verticalAlign=middle;whiteSpace=wrap;rounded=0;fontSize=16;fontStyle=1" vertex="1" parent="-gNgaxF5dDmcWoJVMX3Y-1">
          <mxGeometry x="282" y="210" width="20" height="20" as="geometry" />
        </mxCell>
        <mxCell id="-gNgaxF5dDmcWoJVMX3Y-18" value="3" style="text;html=1;align=center;verticalAlign=middle;whiteSpace=wrap;rounded=0;fontSize=16;fontStyle=1" vertex="1" parent="-gNgaxF5dDmcWoJVMX3Y-1">
          <mxGeometry x="331" y="210" width="20" height="20" as="geometry" />
        </mxCell>
        <mxCell id="-gNgaxF5dDmcWoJVMX3Y-19" value="4" style="text;html=1;align=center;verticalAlign=middle;whiteSpace=wrap;rounded=0;fontSize=16;fontStyle=1" vertex="1" parent="-gNgaxF5dDmcWoJVMX3Y-1">
          <mxGeometry x="377" y="210" width="20" height="20" as="geometry" />
        </mxCell>
        <mxCell id="-gNgaxF5dDmcWoJVMX3Y-20" value="5" style="text;html=1;align=center;verticalAlign=middle;whiteSpace=wrap;rounded=0;fontSize=16;fontStyle=1" vertex="1" parent="-gNgaxF5dDmcWoJVMX3Y-1">
          <mxGeometry x="427" y="210" width="20" height="20" as="geometry" />
        </mxCell>
        <mxCell id="-gNgaxF5dDmcWoJVMX3Y-21" value="6" style="text;html=1;align=center;verticalAlign=middle;whiteSpace=wrap;rounded=0;fontSize=16;fontStyle=1" vertex="1" parent="-gNgaxF5dDmcWoJVMX3Y-1">
          <mxGeometry x="475" y="210" width="20" height="20" as="geometry" />
        </mxCell>
        <mxCell id="-gNgaxF5dDmcWoJVMX3Y-22" value="7" style="text;html=1;align=center;verticalAlign=middle;whiteSpace=wrap;rounded=0;fontSize=16;fontStyle=1" vertex="1" parent="-gNgaxF5dDmcWoJVMX3Y-1">
          <mxGeometry x="520" y="210" width="20" height="20" as="geometry" />
        </mxCell>
        <mxCell id="-gNgaxF5dDmcWoJVMX3Y-23" value="8" style="text;html=1;align=center;verticalAlign=middle;whiteSpace=wrap;rounded=0;fontSize=16;fontStyle=1" vertex="1" parent="-gNgaxF5dDmcWoJVMX3Y-1">
          <mxGeometry x="570" y="210" width="20" height="20" as="geometry" />
        </mxCell>
        <mxCell id="-gNgaxF5dDmcWoJVMX3Y-24" value="9" style="text;html=1;align=center;verticalAlign=middle;whiteSpace=wrap;rounded=0;fontSize=16;fontStyle=1" vertex="1" parent="-gNgaxF5dDmcWoJVMX3Y-1">
          <mxGeometry x="620" y="210" width="20" height="20" as="geometry" />
        </mxCell>
      </root>
    </mxGraphModel>
  </diagram>
  <diagram name="2" id="a_lKSGjZpLzGz4tYTFOK">
    <mxGraphModel dx="1434" dy="780" grid="1" gridSize="10" guides="1" tooltips="1" connect="1" arrows="1" fold="1" page="1" pageScale="1" pageWidth="827" pageHeight="1169" math="0" shadow="0">
      <root>
        <mxCell id="0" />
        <mxCell id="1" parent="0" />
        <mxCell id="xIBHTXaroq3jU3iKKvLr-1" value="Tamanho = 10" style="text;html=1;align=center;verticalAlign=middle;whiteSpace=wrap;rounded=0;fontSize=16;fontStyle=1" vertex="1" parent="1">
          <mxGeometry x="354" y="50" width="119" height="30" as="geometry" />
        </mxCell>
        <mxCell id="xIBHTXaroq3jU3iKKvLr-3" value="Insere 13" style="rounded=1;whiteSpace=wrap;html=1;fontSize=16;" vertex="1" parent="1">
          <mxGeometry x="680" y="40" width="110" height="40" as="geometry" />
        </mxCell>
        <mxCell id="xIBHTXaroq3jU3iKKvLr-4" value="posicao = 13 % 10 = 3" style="text;html=1;align=center;verticalAlign=middle;whiteSpace=wrap;rounded=0;fontSize=16;fontStyle=0" vertex="1" parent="1">
          <mxGeometry x="314" y="90" width="199" height="30" as="geometry" />
        </mxCell>
        <mxCell id="LcPsmwVdmpNgG2w4J4y--4" value="" style="whiteSpace=wrap;html=1;aspect=fixed;fontStyle=1" vertex="1" parent="1">
          <mxGeometry x="172" y="230" width="50" height="50" as="geometry" />
        </mxCell>
        <mxCell id="LcPsmwVdmpNgG2w4J4y--5" value="0" style="text;html=1;align=center;verticalAlign=middle;whiteSpace=wrap;rounded=0;fontSize=16;fontStyle=1" vertex="1" parent="1">
          <mxGeometry x="187" y="210" width="20" height="20" as="geometry" />
        </mxCell>
        <mxCell id="LcPsmwVdmpNgG2w4J4y--6" value="" style="whiteSpace=wrap;html=1;aspect=fixed;fontStyle=1" vertex="1" parent="1">
          <mxGeometry x="217" y="230" width="50" height="50" as="geometry" />
        </mxCell>
        <mxCell id="LcPsmwVdmpNgG2w4J4y--8" value="" style="whiteSpace=wrap;html=1;aspect=fixed;fontStyle=1" vertex="1" parent="1">
          <mxGeometry x="267" y="230" width="50" height="50" as="geometry" />
        </mxCell>
        <mxCell id="LcPsmwVdmpNgG2w4J4y--15" value="" style="whiteSpace=wrap;html=1;aspect=fixed;fontStyle=1" vertex="1" parent="1">
          <mxGeometry x="317" y="230" width="50" height="50" as="geometry" />
        </mxCell>
        <mxCell id="LcPsmwVdmpNgG2w4J4y--17" value="" style="whiteSpace=wrap;html=1;aspect=fixed;fontStyle=1" vertex="1" parent="1">
          <mxGeometry x="362" y="230" width="50" height="50" as="geometry" />
        </mxCell>
        <mxCell id="LcPsmwVdmpNgG2w4J4y--19" value="" style="whiteSpace=wrap;html=1;aspect=fixed;fontStyle=1" vertex="1" parent="1">
          <mxGeometry x="412" y="230" width="50" height="50" as="geometry" />
        </mxCell>
        <mxCell id="LcPsmwVdmpNgG2w4J4y--21" value="" style="whiteSpace=wrap;html=1;aspect=fixed;fontStyle=1" vertex="1" parent="1">
          <mxGeometry x="460" y="230" width="50" height="50" as="geometry" />
        </mxCell>
        <mxCell id="LcPsmwVdmpNgG2w4J4y--23" value="" style="whiteSpace=wrap;html=1;aspect=fixed;fontStyle=1" vertex="1" parent="1">
          <mxGeometry x="505" y="230" width="50" height="50" as="geometry" />
        </mxCell>
        <mxCell id="LcPsmwVdmpNgG2w4J4y--25" value="" style="whiteSpace=wrap;html=1;aspect=fixed;fontStyle=1" vertex="1" parent="1">
          <mxGeometry x="555" y="230" width="50" height="50" as="geometry" />
        </mxCell>
        <mxCell id="LcPsmwVdmpNgG2w4J4y--27" value="" style="whiteSpace=wrap;html=1;aspect=fixed;fontStyle=1" vertex="1" parent="1">
          <mxGeometry x="605" y="230" width="50" height="50" as="geometry" />
        </mxCell>
        <mxCell id="LcPsmwVdmpNgG2w4J4y--29" value="1" style="text;html=1;align=center;verticalAlign=middle;whiteSpace=wrap;rounded=0;fontSize=16;fontStyle=1" vertex="1" parent="1">
          <mxGeometry x="232" y="210" width="20" height="20" as="geometry" />
        </mxCell>
        <mxCell id="LcPsmwVdmpNgG2w4J4y--30" value="2" style="text;html=1;align=center;verticalAlign=middle;whiteSpace=wrap;rounded=0;fontSize=16;fontStyle=1" vertex="1" parent="1">
          <mxGeometry x="282" y="210" width="20" height="20" as="geometry" />
        </mxCell>
        <mxCell id="LcPsmwVdmpNgG2w4J4y--31" value="3" style="text;html=1;align=center;verticalAlign=middle;whiteSpace=wrap;rounded=0;fontSize=16;fontStyle=1" vertex="1" parent="1">
          <mxGeometry x="331" y="210" width="20" height="20" as="geometry" />
        </mxCell>
        <mxCell id="LcPsmwVdmpNgG2w4J4y--32" value="4" style="text;html=1;align=center;verticalAlign=middle;whiteSpace=wrap;rounded=0;fontSize=16;fontStyle=1" vertex="1" parent="1">
          <mxGeometry x="377" y="210" width="20" height="20" as="geometry" />
        </mxCell>
        <mxCell id="LcPsmwVdmpNgG2w4J4y--33" value="5" style="text;html=1;align=center;verticalAlign=middle;whiteSpace=wrap;rounded=0;fontSize=16;fontStyle=1" vertex="1" parent="1">
          <mxGeometry x="427" y="210" width="20" height="20" as="geometry" />
        </mxCell>
        <mxCell id="LcPsmwVdmpNgG2w4J4y--34" value="6" style="text;html=1;align=center;verticalAlign=middle;whiteSpace=wrap;rounded=0;fontSize=16;fontStyle=1" vertex="1" parent="1">
          <mxGeometry x="475" y="210" width="20" height="20" as="geometry" />
        </mxCell>
        <mxCell id="LcPsmwVdmpNgG2w4J4y--35" value="7" style="text;html=1;align=center;verticalAlign=middle;whiteSpace=wrap;rounded=0;fontSize=16;fontStyle=1" vertex="1" parent="1">
          <mxGeometry x="520" y="210" width="20" height="20" as="geometry" />
        </mxCell>
        <mxCell id="LcPsmwVdmpNgG2w4J4y--36" value="8" style="text;html=1;align=center;verticalAlign=middle;whiteSpace=wrap;rounded=0;fontSize=16;fontStyle=1" vertex="1" parent="1">
          <mxGeometry x="570" y="210" width="20" height="20" as="geometry" />
        </mxCell>
        <mxCell id="LcPsmwVdmpNgG2w4J4y--37" value="9" style="text;html=1;align=center;verticalAlign=middle;whiteSpace=wrap;rounded=0;fontSize=16;fontStyle=1" vertex="1" parent="1">
          <mxGeometry x="620" y="210" width="20" height="20" as="geometry" />
        </mxCell>
        <mxCell id="X_GF4t4WyQdj5DgUF3ie-1" value="13" style="text;html=1;align=center;verticalAlign=middle;whiteSpace=wrap;rounded=0;fontSize=16;fontStyle=1" vertex="1" parent="1">
          <mxGeometry x="332" y="245" width="20" height="20" as="geometry" />
        </mxCell>
      </root>
    </mxGraphModel>
  </diagram>
  <diagram name="3" id="tlzGXtQybTVRQQftq2ZP">
    <mxGraphModel dx="1434" dy="780" grid="1" gridSize="10" guides="1" tooltips="1" connect="1" arrows="1" fold="1" page="1" pageScale="1" pageWidth="827" pageHeight="1169" math="0" shadow="0">
      <root>
        <mxCell id="ADmHSvH-pjgVgPhDX225-0" />
        <mxCell id="ADmHSvH-pjgVgPhDX225-1" parent="ADmHSvH-pjgVgPhDX225-0" />
        <mxCell id="ADmHSvH-pjgVgPhDX225-2" value="Tamanho = 10" style="text;html=1;align=center;verticalAlign=middle;whiteSpace=wrap;rounded=0;fontSize=16;fontStyle=1" vertex="1" parent="ADmHSvH-pjgVgPhDX225-1">
          <mxGeometry x="354" y="50" width="119" height="30" as="geometry" />
        </mxCell>
        <mxCell id="ADmHSvH-pjgVgPhDX225-3" value="Insere 11" style="rounded=1;whiteSpace=wrap;html=1;fontSize=16;" vertex="1" parent="ADmHSvH-pjgVgPhDX225-1">
          <mxGeometry x="680" y="40" width="110" height="40" as="geometry" />
        </mxCell>
        <mxCell id="ADmHSvH-pjgVgPhDX225-4" value="posicao = 11 % 10 = 1" style="text;html=1;align=center;verticalAlign=middle;whiteSpace=wrap;rounded=0;fontSize=16;fontStyle=0" vertex="1" parent="ADmHSvH-pjgVgPhDX225-1">
          <mxGeometry x="314" y="90" width="199" height="30" as="geometry" />
        </mxCell>
        <mxCell id="ADmHSvH-pjgVgPhDX225-5" value="" style="whiteSpace=wrap;html=1;aspect=fixed;fontStyle=1" vertex="1" parent="ADmHSvH-pjgVgPhDX225-1">
          <mxGeometry x="172" y="230" width="50" height="50" as="geometry" />
        </mxCell>
        <mxCell id="ADmHSvH-pjgVgPhDX225-6" value="0" style="text;html=1;align=center;verticalAlign=middle;whiteSpace=wrap;rounded=0;fontSize=16;fontStyle=1" vertex="1" parent="ADmHSvH-pjgVgPhDX225-1">
          <mxGeometry x="187" y="210" width="20" height="20" as="geometry" />
        </mxCell>
        <mxCell id="ADmHSvH-pjgVgPhDX225-7" value="" style="whiteSpace=wrap;html=1;aspect=fixed;fontStyle=1" vertex="1" parent="ADmHSvH-pjgVgPhDX225-1">
          <mxGeometry x="217" y="230" width="50" height="50" as="geometry" />
        </mxCell>
        <mxCell id="ADmHSvH-pjgVgPhDX225-8" value="" style="whiteSpace=wrap;html=1;aspect=fixed;fontStyle=1" vertex="1" parent="ADmHSvH-pjgVgPhDX225-1">
          <mxGeometry x="267" y="230" width="50" height="50" as="geometry" />
        </mxCell>
        <mxCell id="ADmHSvH-pjgVgPhDX225-9" value="" style="whiteSpace=wrap;html=1;aspect=fixed;fontStyle=1" vertex="1" parent="ADmHSvH-pjgVgPhDX225-1">
          <mxGeometry x="317" y="230" width="50" height="50" as="geometry" />
        </mxCell>
        <mxCell id="ADmHSvH-pjgVgPhDX225-10" value="" style="whiteSpace=wrap;html=1;aspect=fixed;fontStyle=1" vertex="1" parent="ADmHSvH-pjgVgPhDX225-1">
          <mxGeometry x="362" y="230" width="50" height="50" as="geometry" />
        </mxCell>
        <mxCell id="ADmHSvH-pjgVgPhDX225-11" value="" style="whiteSpace=wrap;html=1;aspect=fixed;fontStyle=1" vertex="1" parent="ADmHSvH-pjgVgPhDX225-1">
          <mxGeometry x="412" y="230" width="50" height="50" as="geometry" />
        </mxCell>
        <mxCell id="ADmHSvH-pjgVgPhDX225-12" value="" style="whiteSpace=wrap;html=1;aspect=fixed;fontStyle=1" vertex="1" parent="ADmHSvH-pjgVgPhDX225-1">
          <mxGeometry x="460" y="230" width="50" height="50" as="geometry" />
        </mxCell>
        <mxCell id="ADmHSvH-pjgVgPhDX225-13" value="" style="whiteSpace=wrap;html=1;aspect=fixed;fontStyle=1" vertex="1" parent="ADmHSvH-pjgVgPhDX225-1">
          <mxGeometry x="505" y="230" width="50" height="50" as="geometry" />
        </mxCell>
        <mxCell id="ADmHSvH-pjgVgPhDX225-14" value="" style="whiteSpace=wrap;html=1;aspect=fixed;fontStyle=1" vertex="1" parent="ADmHSvH-pjgVgPhDX225-1">
          <mxGeometry x="555" y="230" width="50" height="50" as="geometry" />
        </mxCell>
        <mxCell id="ADmHSvH-pjgVgPhDX225-15" value="" style="whiteSpace=wrap;html=1;aspect=fixed;fontStyle=1" vertex="1" parent="ADmHSvH-pjgVgPhDX225-1">
          <mxGeometry x="605" y="230" width="50" height="50" as="geometry" />
        </mxCell>
        <mxCell id="ADmHSvH-pjgVgPhDX225-16" value="1" style="text;html=1;align=center;verticalAlign=middle;whiteSpace=wrap;rounded=0;fontSize=16;fontStyle=1" vertex="1" parent="ADmHSvH-pjgVgPhDX225-1">
          <mxGeometry x="232" y="210" width="20" height="20" as="geometry" />
        </mxCell>
        <mxCell id="ADmHSvH-pjgVgPhDX225-17" value="2" style="text;html=1;align=center;verticalAlign=middle;whiteSpace=wrap;rounded=0;fontSize=16;fontStyle=1" vertex="1" parent="ADmHSvH-pjgVgPhDX225-1">
          <mxGeometry x="282" y="210" width="20" height="20" as="geometry" />
        </mxCell>
        <mxCell id="ADmHSvH-pjgVgPhDX225-18" value="3" style="text;html=1;align=center;verticalAlign=middle;whiteSpace=wrap;rounded=0;fontSize=16;fontStyle=1" vertex="1" parent="ADmHSvH-pjgVgPhDX225-1">
          <mxGeometry x="331" y="210" width="20" height="20" as="geometry" />
        </mxCell>
        <mxCell id="ADmHSvH-pjgVgPhDX225-19" value="4" style="text;html=1;align=center;verticalAlign=middle;whiteSpace=wrap;rounded=0;fontSize=16;fontStyle=1" vertex="1" parent="ADmHSvH-pjgVgPhDX225-1">
          <mxGeometry x="377" y="210" width="20" height="20" as="geometry" />
        </mxCell>
        <mxCell id="ADmHSvH-pjgVgPhDX225-20" value="5" style="text;html=1;align=center;verticalAlign=middle;whiteSpace=wrap;rounded=0;fontSize=16;fontStyle=1" vertex="1" parent="ADmHSvH-pjgVgPhDX225-1">
          <mxGeometry x="427" y="210" width="20" height="20" as="geometry" />
        </mxCell>
        <mxCell id="ADmHSvH-pjgVgPhDX225-21" value="6" style="text;html=1;align=center;verticalAlign=middle;whiteSpace=wrap;rounded=0;fontSize=16;fontStyle=1" vertex="1" parent="ADmHSvH-pjgVgPhDX225-1">
          <mxGeometry x="475" y="210" width="20" height="20" as="geometry" />
        </mxCell>
        <mxCell id="ADmHSvH-pjgVgPhDX225-22" value="7" style="text;html=1;align=center;verticalAlign=middle;whiteSpace=wrap;rounded=0;fontSize=16;fontStyle=1" vertex="1" parent="ADmHSvH-pjgVgPhDX225-1">
          <mxGeometry x="520" y="210" width="20" height="20" as="geometry" />
        </mxCell>
        <mxCell id="ADmHSvH-pjgVgPhDX225-23" value="8" style="text;html=1;align=center;verticalAlign=middle;whiteSpace=wrap;rounded=0;fontSize=16;fontStyle=1" vertex="1" parent="ADmHSvH-pjgVgPhDX225-1">
          <mxGeometry x="570" y="210" width="20" height="20" as="geometry" />
        </mxCell>
        <mxCell id="ADmHSvH-pjgVgPhDX225-24" value="9" style="text;html=1;align=center;verticalAlign=middle;whiteSpace=wrap;rounded=0;fontSize=16;fontStyle=1" vertex="1" parent="ADmHSvH-pjgVgPhDX225-1">
          <mxGeometry x="620" y="210" width="20" height="20" as="geometry" />
        </mxCell>
        <mxCell id="ADmHSvH-pjgVgPhDX225-25" value="13" style="text;html=1;align=center;verticalAlign=middle;whiteSpace=wrap;rounded=0;fontSize=16;fontStyle=1" vertex="1" parent="ADmHSvH-pjgVgPhDX225-1">
          <mxGeometry x="332" y="245" width="20" height="20" as="geometry" />
        </mxCell>
        <mxCell id="MH28W0CfMXSVv4rWf18A-0" value="11" style="text;html=1;align=center;verticalAlign=middle;whiteSpace=wrap;rounded=0;fontSize=16;fontStyle=1" vertex="1" parent="ADmHSvH-pjgVgPhDX225-1">
          <mxGeometry x="232" y="245" width="20" height="20" as="geometry" />
        </mxCell>
      </root>
    </mxGraphModel>
  </diagram>
  <diagram name="4" id="1DkJ_96_WxkD4BAVDWu7">
    <mxGraphModel dx="1434" dy="780" grid="1" gridSize="10" guides="1" tooltips="1" connect="1" arrows="1" fold="1" page="1" pageScale="1" pageWidth="827" pageHeight="1169" math="0" shadow="0">
      <root>
        <mxCell id="FdJrlgUN5kFBcE0ro0zw-0" />
        <mxCell id="FdJrlgUN5kFBcE0ro0zw-1" parent="FdJrlgUN5kFBcE0ro0zw-0" />
        <mxCell id="FdJrlgUN5kFBcE0ro0zw-2" value="Tamanho = 10" style="text;html=1;align=center;verticalAlign=middle;whiteSpace=wrap;rounded=0;fontSize=16;fontStyle=1" vertex="1" parent="FdJrlgUN5kFBcE0ro0zw-1">
          <mxGeometry x="354" y="50" width="119" height="30" as="geometry" />
        </mxCell>
        <mxCell id="FdJrlgUN5kFBcE0ro0zw-3" value="Insere 21" style="rounded=1;whiteSpace=wrap;html=1;fontSize=16;" vertex="1" parent="FdJrlgUN5kFBcE0ro0zw-1">
          <mxGeometry x="680" y="40" width="110" height="40" as="geometry" />
        </mxCell>
        <mxCell id="FdJrlgUN5kFBcE0ro0zw-4" value="posicao = 21 % 10 = 1" style="text;html=1;align=center;verticalAlign=middle;whiteSpace=wrap;rounded=0;fontSize=16;fontStyle=0" vertex="1" parent="FdJrlgUN5kFBcE0ro0zw-1">
          <mxGeometry x="314" y="90" width="199" height="30" as="geometry" />
        </mxCell>
        <mxCell id="FdJrlgUN5kFBcE0ro0zw-5" value="" style="whiteSpace=wrap;html=1;aspect=fixed;fontStyle=1" vertex="1" parent="FdJrlgUN5kFBcE0ro0zw-1">
          <mxGeometry x="172" y="230" width="50" height="50" as="geometry" />
        </mxCell>
        <mxCell id="FdJrlgUN5kFBcE0ro0zw-6" value="0" style="text;html=1;align=center;verticalAlign=middle;whiteSpace=wrap;rounded=0;fontSize=16;fontStyle=1" vertex="1" parent="FdJrlgUN5kFBcE0ro0zw-1">
          <mxGeometry x="187" y="210" width="20" height="20" as="geometry" />
        </mxCell>
        <mxCell id="FdJrlgUN5kFBcE0ro0zw-7" value="" style="whiteSpace=wrap;html=1;aspect=fixed;fontStyle=1" vertex="1" parent="FdJrlgUN5kFBcE0ro0zw-1">
          <mxGeometry x="217" y="230" width="50" height="50" as="geometry" />
        </mxCell>
        <mxCell id="FdJrlgUN5kFBcE0ro0zw-8" value="" style="whiteSpace=wrap;html=1;aspect=fixed;fontStyle=1" vertex="1" parent="FdJrlgUN5kFBcE0ro0zw-1">
          <mxGeometry x="267" y="230" width="50" height="50" as="geometry" />
        </mxCell>
        <mxCell id="FdJrlgUN5kFBcE0ro0zw-9" value="" style="whiteSpace=wrap;html=1;aspect=fixed;fontStyle=1" vertex="1" parent="FdJrlgUN5kFBcE0ro0zw-1">
          <mxGeometry x="317" y="230" width="50" height="50" as="geometry" />
        </mxCell>
        <mxCell id="FdJrlgUN5kFBcE0ro0zw-10" value="" style="whiteSpace=wrap;html=1;aspect=fixed;fontStyle=1" vertex="1" parent="FdJrlgUN5kFBcE0ro0zw-1">
          <mxGeometry x="362" y="230" width="50" height="50" as="geometry" />
        </mxCell>
        <mxCell id="FdJrlgUN5kFBcE0ro0zw-11" value="" style="whiteSpace=wrap;html=1;aspect=fixed;fontStyle=1" vertex="1" parent="FdJrlgUN5kFBcE0ro0zw-1">
          <mxGeometry x="412" y="230" width="50" height="50" as="geometry" />
        </mxCell>
        <mxCell id="FdJrlgUN5kFBcE0ro0zw-12" value="" style="whiteSpace=wrap;html=1;aspect=fixed;fontStyle=1" vertex="1" parent="FdJrlgUN5kFBcE0ro0zw-1">
          <mxGeometry x="460" y="230" width="50" height="50" as="geometry" />
        </mxCell>
        <mxCell id="FdJrlgUN5kFBcE0ro0zw-13" value="" style="whiteSpace=wrap;html=1;aspect=fixed;fontStyle=1" vertex="1" parent="FdJrlgUN5kFBcE0ro0zw-1">
          <mxGeometry x="505" y="230" width="50" height="50" as="geometry" />
        </mxCell>
        <mxCell id="FdJrlgUN5kFBcE0ro0zw-14" value="" style="whiteSpace=wrap;html=1;aspect=fixed;fontStyle=1" vertex="1" parent="FdJrlgUN5kFBcE0ro0zw-1">
          <mxGeometry x="555" y="230" width="50" height="50" as="geometry" />
        </mxCell>
        <mxCell id="FdJrlgUN5kFBcE0ro0zw-15" value="" style="whiteSpace=wrap;html=1;aspect=fixed;fontStyle=1" vertex="1" parent="FdJrlgUN5kFBcE0ro0zw-1">
          <mxGeometry x="605" y="230" width="50" height="50" as="geometry" />
        </mxCell>
        <mxCell id="FdJrlgUN5kFBcE0ro0zw-16" value="1" style="text;html=1;align=center;verticalAlign=middle;whiteSpace=wrap;rounded=0;fontSize=16;fontStyle=1" vertex="1" parent="FdJrlgUN5kFBcE0ro0zw-1">
          <mxGeometry x="232" y="210" width="20" height="20" as="geometry" />
        </mxCell>
        <mxCell id="FdJrlgUN5kFBcE0ro0zw-17" value="2" style="text;html=1;align=center;verticalAlign=middle;whiteSpace=wrap;rounded=0;fontSize=16;fontStyle=1" vertex="1" parent="FdJrlgUN5kFBcE0ro0zw-1">
          <mxGeometry x="282" y="210" width="20" height="20" as="geometry" />
        </mxCell>
        <mxCell id="FdJrlgUN5kFBcE0ro0zw-18" value="3" style="text;html=1;align=center;verticalAlign=middle;whiteSpace=wrap;rounded=0;fontSize=16;fontStyle=1" vertex="1" parent="FdJrlgUN5kFBcE0ro0zw-1">
          <mxGeometry x="331" y="210" width="20" height="20" as="geometry" />
        </mxCell>
        <mxCell id="FdJrlgUN5kFBcE0ro0zw-19" value="4" style="text;html=1;align=center;verticalAlign=middle;whiteSpace=wrap;rounded=0;fontSize=16;fontStyle=1" vertex="1" parent="FdJrlgUN5kFBcE0ro0zw-1">
          <mxGeometry x="377" y="210" width="20" height="20" as="geometry" />
        </mxCell>
        <mxCell id="FdJrlgUN5kFBcE0ro0zw-20" value="5" style="text;html=1;align=center;verticalAlign=middle;whiteSpace=wrap;rounded=0;fontSize=16;fontStyle=1" vertex="1" parent="FdJrlgUN5kFBcE0ro0zw-1">
          <mxGeometry x="427" y="210" width="20" height="20" as="geometry" />
        </mxCell>
        <mxCell id="FdJrlgUN5kFBcE0ro0zw-21" value="6" style="text;html=1;align=center;verticalAlign=middle;whiteSpace=wrap;rounded=0;fontSize=16;fontStyle=1" vertex="1" parent="FdJrlgUN5kFBcE0ro0zw-1">
          <mxGeometry x="475" y="210" width="20" height="20" as="geometry" />
        </mxCell>
        <mxCell id="FdJrlgUN5kFBcE0ro0zw-22" value="7" style="text;html=1;align=center;verticalAlign=middle;whiteSpace=wrap;rounded=0;fontSize=16;fontStyle=1" vertex="1" parent="FdJrlgUN5kFBcE0ro0zw-1">
          <mxGeometry x="520" y="210" width="20" height="20" as="geometry" />
        </mxCell>
        <mxCell id="FdJrlgUN5kFBcE0ro0zw-23" value="8" style="text;html=1;align=center;verticalAlign=middle;whiteSpace=wrap;rounded=0;fontSize=16;fontStyle=1" vertex="1" parent="FdJrlgUN5kFBcE0ro0zw-1">
          <mxGeometry x="570" y="210" width="20" height="20" as="geometry" />
        </mxCell>
        <mxCell id="FdJrlgUN5kFBcE0ro0zw-24" value="9" style="text;html=1;align=center;verticalAlign=middle;whiteSpace=wrap;rounded=0;fontSize=16;fontStyle=1" vertex="1" parent="FdJrlgUN5kFBcE0ro0zw-1">
          <mxGeometry x="620" y="210" width="20" height="20" as="geometry" />
        </mxCell>
        <mxCell id="FdJrlgUN5kFBcE0ro0zw-25" value="13" style="text;html=1;align=center;verticalAlign=middle;whiteSpace=wrap;rounded=0;fontSize=16;fontStyle=1" vertex="1" parent="FdJrlgUN5kFBcE0ro0zw-1">
          <mxGeometry x="332" y="245" width="20" height="20" as="geometry" />
        </mxCell>
        <mxCell id="FdJrlgUN5kFBcE0ro0zw-26" value="11" style="text;html=1;align=center;verticalAlign=middle;whiteSpace=wrap;rounded=0;fontSize=16;fontStyle=1" vertex="1" parent="FdJrlgUN5kFBcE0ro0zw-1">
          <mxGeometry x="232" y="245" width="20" height="20" as="geometry" />
        </mxCell>
        <mxCell id="5gcNH6z1Kkx3xe0bzuTB-0" value="21" style="text;html=1;align=center;verticalAlign=middle;whiteSpace=wrap;rounded=0;fontSize=16;fontStyle=1" vertex="1" parent="FdJrlgUN5kFBcE0ro0zw-1">
          <mxGeometry x="282" y="245" width="20" height="20" as="geometry" />
        </mxCell>
      </root>
    </mxGraphModel>
  </diagram>
  <diagram name="5" id="TkCvyi8-PsOuWjnZzf-K">
    <mxGraphModel dx="1434" dy="780" grid="1" gridSize="10" guides="1" tooltips="1" connect="1" arrows="1" fold="1" page="1" pageScale="1" pageWidth="827" pageHeight="1169" math="0" shadow="0">
      <root>
        <mxCell id="9tlGbYGwPFETPQz0nb_1-0" />
        <mxCell id="9tlGbYGwPFETPQz0nb_1-1" parent="9tlGbYGwPFETPQz0nb_1-0" />
        <mxCell id="9tlGbYGwPFETPQz0nb_1-2" value="Tamanho = 10" style="text;html=1;align=center;verticalAlign=middle;whiteSpace=wrap;rounded=0;fontSize=16;fontStyle=1" vertex="1" parent="9tlGbYGwPFETPQz0nb_1-1">
          <mxGeometry x="354" y="50" width="119" height="30" as="geometry" />
        </mxCell>
        <mxCell id="9tlGbYGwPFETPQz0nb_1-3" value="Insere 7" style="rounded=1;whiteSpace=wrap;html=1;fontSize=16;" vertex="1" parent="9tlGbYGwPFETPQz0nb_1-1">
          <mxGeometry x="680" y="40" width="110" height="40" as="geometry" />
        </mxCell>
        <mxCell id="9tlGbYGwPFETPQz0nb_1-4" value="posicao = 7 % 10 = 7" style="text;html=1;align=center;verticalAlign=middle;whiteSpace=wrap;rounded=0;fontSize=16;fontStyle=0" vertex="1" parent="9tlGbYGwPFETPQz0nb_1-1">
          <mxGeometry x="314" y="90" width="199" height="30" as="geometry" />
        </mxCell>
        <mxCell id="9tlGbYGwPFETPQz0nb_1-5" value="" style="whiteSpace=wrap;html=1;aspect=fixed;fontStyle=1" vertex="1" parent="9tlGbYGwPFETPQz0nb_1-1">
          <mxGeometry x="172" y="230" width="50" height="50" as="geometry" />
        </mxCell>
        <mxCell id="9tlGbYGwPFETPQz0nb_1-6" value="0" style="text;html=1;align=center;verticalAlign=middle;whiteSpace=wrap;rounded=0;fontSize=16;fontStyle=1" vertex="1" parent="9tlGbYGwPFETPQz0nb_1-1">
          <mxGeometry x="187" y="210" width="20" height="20" as="geometry" />
        </mxCell>
        <mxCell id="9tlGbYGwPFETPQz0nb_1-7" value="" style="whiteSpace=wrap;html=1;aspect=fixed;fontStyle=1" vertex="1" parent="9tlGbYGwPFETPQz0nb_1-1">
          <mxGeometry x="217" y="230" width="50" height="50" as="geometry" />
        </mxCell>
        <mxCell id="9tlGbYGwPFETPQz0nb_1-8" value="" style="whiteSpace=wrap;html=1;aspect=fixed;fontStyle=1" vertex="1" parent="9tlGbYGwPFETPQz0nb_1-1">
          <mxGeometry x="267" y="230" width="50" height="50" as="geometry" />
        </mxCell>
        <mxCell id="9tlGbYGwPFETPQz0nb_1-9" value="" style="whiteSpace=wrap;html=1;aspect=fixed;fontStyle=1" vertex="1" parent="9tlGbYGwPFETPQz0nb_1-1">
          <mxGeometry x="317" y="230" width="50" height="50" as="geometry" />
        </mxCell>
        <mxCell id="9tlGbYGwPFETPQz0nb_1-10" value="" style="whiteSpace=wrap;html=1;aspect=fixed;fontStyle=1" vertex="1" parent="9tlGbYGwPFETPQz0nb_1-1">
          <mxGeometry x="362" y="230" width="50" height="50" as="geometry" />
        </mxCell>
        <mxCell id="9tlGbYGwPFETPQz0nb_1-11" value="" style="whiteSpace=wrap;html=1;aspect=fixed;fontStyle=1" vertex="1" parent="9tlGbYGwPFETPQz0nb_1-1">
          <mxGeometry x="412" y="230" width="50" height="50" as="geometry" />
        </mxCell>
        <mxCell id="9tlGbYGwPFETPQz0nb_1-12" value="" style="whiteSpace=wrap;html=1;aspect=fixed;fontStyle=1" vertex="1" parent="9tlGbYGwPFETPQz0nb_1-1">
          <mxGeometry x="460" y="230" width="50" height="50" as="geometry" />
        </mxCell>
        <mxCell id="9tlGbYGwPFETPQz0nb_1-13" value="" style="whiteSpace=wrap;html=1;aspect=fixed;fontStyle=1" vertex="1" parent="9tlGbYGwPFETPQz0nb_1-1">
          <mxGeometry x="505" y="230" width="50" height="50" as="geometry" />
        </mxCell>
        <mxCell id="9tlGbYGwPFETPQz0nb_1-14" value="" style="whiteSpace=wrap;html=1;aspect=fixed;fontStyle=1" vertex="1" parent="9tlGbYGwPFETPQz0nb_1-1">
          <mxGeometry x="555" y="230" width="50" height="50" as="geometry" />
        </mxCell>
        <mxCell id="9tlGbYGwPFETPQz0nb_1-15" value="" style="whiteSpace=wrap;html=1;aspect=fixed;fontStyle=1" vertex="1" parent="9tlGbYGwPFETPQz0nb_1-1">
          <mxGeometry x="605" y="230" width="50" height="50" as="geometry" />
        </mxCell>
        <mxCell id="9tlGbYGwPFETPQz0nb_1-16" value="1" style="text;html=1;align=center;verticalAlign=middle;whiteSpace=wrap;rounded=0;fontSize=16;fontStyle=1" vertex="1" parent="9tlGbYGwPFETPQz0nb_1-1">
          <mxGeometry x="232" y="210" width="20" height="20" as="geometry" />
        </mxCell>
        <mxCell id="9tlGbYGwPFETPQz0nb_1-17" value="2" style="text;html=1;align=center;verticalAlign=middle;whiteSpace=wrap;rounded=0;fontSize=16;fontStyle=1" vertex="1" parent="9tlGbYGwPFETPQz0nb_1-1">
          <mxGeometry x="282" y="210" width="20" height="20" as="geometry" />
        </mxCell>
        <mxCell id="9tlGbYGwPFETPQz0nb_1-18" value="3" style="text;html=1;align=center;verticalAlign=middle;whiteSpace=wrap;rounded=0;fontSize=16;fontStyle=1" vertex="1" parent="9tlGbYGwPFETPQz0nb_1-1">
          <mxGeometry x="331" y="210" width="20" height="20" as="geometry" />
        </mxCell>
        <mxCell id="9tlGbYGwPFETPQz0nb_1-19" value="4" style="text;html=1;align=center;verticalAlign=middle;whiteSpace=wrap;rounded=0;fontSize=16;fontStyle=1" vertex="1" parent="9tlGbYGwPFETPQz0nb_1-1">
          <mxGeometry x="377" y="210" width="20" height="20" as="geometry" />
        </mxCell>
        <mxCell id="9tlGbYGwPFETPQz0nb_1-20" value="5" style="text;html=1;align=center;verticalAlign=middle;whiteSpace=wrap;rounded=0;fontSize=16;fontStyle=1" vertex="1" parent="9tlGbYGwPFETPQz0nb_1-1">
          <mxGeometry x="427" y="210" width="20" height="20" as="geometry" />
        </mxCell>
        <mxCell id="9tlGbYGwPFETPQz0nb_1-21" value="6" style="text;html=1;align=center;verticalAlign=middle;whiteSpace=wrap;rounded=0;fontSize=16;fontStyle=1" vertex="1" parent="9tlGbYGwPFETPQz0nb_1-1">
          <mxGeometry x="475" y="210" width="20" height="20" as="geometry" />
        </mxCell>
        <mxCell id="9tlGbYGwPFETPQz0nb_1-22" value="7" style="text;html=1;align=center;verticalAlign=middle;whiteSpace=wrap;rounded=0;fontSize=16;fontStyle=1" vertex="1" parent="9tlGbYGwPFETPQz0nb_1-1">
          <mxGeometry x="520" y="210" width="20" height="20" as="geometry" />
        </mxCell>
        <mxCell id="9tlGbYGwPFETPQz0nb_1-23" value="8" style="text;html=1;align=center;verticalAlign=middle;whiteSpace=wrap;rounded=0;fontSize=16;fontStyle=1" vertex="1" parent="9tlGbYGwPFETPQz0nb_1-1">
          <mxGeometry x="570" y="210" width="20" height="20" as="geometry" />
        </mxCell>
        <mxCell id="9tlGbYGwPFETPQz0nb_1-24" value="9" style="text;html=1;align=center;verticalAlign=middle;whiteSpace=wrap;rounded=0;fontSize=16;fontStyle=1" vertex="1" parent="9tlGbYGwPFETPQz0nb_1-1">
          <mxGeometry x="620" y="210" width="20" height="20" as="geometry" />
        </mxCell>
        <mxCell id="9tlGbYGwPFETPQz0nb_1-25" value="13" style="text;html=1;align=center;verticalAlign=middle;whiteSpace=wrap;rounded=0;fontSize=16;fontStyle=1" vertex="1" parent="9tlGbYGwPFETPQz0nb_1-1">
          <mxGeometry x="332" y="245" width="20" height="20" as="geometry" />
        </mxCell>
        <mxCell id="9tlGbYGwPFETPQz0nb_1-26" value="11" style="text;html=1;align=center;verticalAlign=middle;whiteSpace=wrap;rounded=0;fontSize=16;fontStyle=1" vertex="1" parent="9tlGbYGwPFETPQz0nb_1-1">
          <mxGeometry x="232" y="245" width="20" height="20" as="geometry" />
        </mxCell>
        <mxCell id="9tlGbYGwPFETPQz0nb_1-27" value="21" style="text;html=1;align=center;verticalAlign=middle;whiteSpace=wrap;rounded=0;fontSize=16;fontStyle=1" vertex="1" parent="9tlGbYGwPFETPQz0nb_1-1">
          <mxGeometry x="282" y="245" width="20" height="20" as="geometry" />
        </mxCell>
        <mxCell id="fSNOxur7PefS1Ph1JNgP-0" value="7" style="text;html=1;align=center;verticalAlign=middle;whiteSpace=wrap;rounded=0;fontSize=16;fontStyle=1" vertex="1" parent="9tlGbYGwPFETPQz0nb_1-1">
          <mxGeometry x="520" y="245" width="20" height="20" as="geometry" />
        </mxCell>
      </root>
    </mxGraphModel>
  </diagram>
  <diagram name="6" id="olb75BjkmzKvzMd_X9rw">
    <mxGraphModel dx="1434" dy="780" grid="1" gridSize="10" guides="1" tooltips="1" connect="1" arrows="1" fold="1" page="1" pageScale="1" pageWidth="827" pageHeight="1169" math="0" shadow="0">
      <root>
        <mxCell id="vaEcrT902pSk5SKOPkYp-0" />
        <mxCell id="vaEcrT902pSk5SKOPkYp-1" parent="vaEcrT902pSk5SKOPkYp-0" />
        <mxCell id="vaEcrT902pSk5SKOPkYp-2" value="Tamanho = 10" style="text;html=1;align=center;verticalAlign=middle;whiteSpace=wrap;rounded=0;fontSize=16;fontStyle=1" vertex="1" parent="vaEcrT902pSk5SKOPkYp-1">
          <mxGeometry x="354" y="50" width="119" height="30" as="geometry" />
        </mxCell>
        <mxCell id="vaEcrT902pSk5SKOPkYp-3" value="Insere 60" style="rounded=1;whiteSpace=wrap;html=1;fontSize=16;" vertex="1" parent="vaEcrT902pSk5SKOPkYp-1">
          <mxGeometry x="680" y="40" width="110" height="40" as="geometry" />
        </mxCell>
        <mxCell id="vaEcrT902pSk5SKOPkYp-4" value="posicao = 60 % 10 = 0" style="text;html=1;align=center;verticalAlign=middle;whiteSpace=wrap;rounded=0;fontSize=16;fontStyle=0" vertex="1" parent="vaEcrT902pSk5SKOPkYp-1">
          <mxGeometry x="314" y="90" width="199" height="30" as="geometry" />
        </mxCell>
        <mxCell id="vaEcrT902pSk5SKOPkYp-5" value="" style="whiteSpace=wrap;html=1;aspect=fixed;fontStyle=1" vertex="1" parent="vaEcrT902pSk5SKOPkYp-1">
          <mxGeometry x="172" y="230" width="50" height="50" as="geometry" />
        </mxCell>
        <mxCell id="vaEcrT902pSk5SKOPkYp-6" value="0" style="text;html=1;align=center;verticalAlign=middle;whiteSpace=wrap;rounded=0;fontSize=16;fontStyle=1" vertex="1" parent="vaEcrT902pSk5SKOPkYp-1">
          <mxGeometry x="187" y="210" width="20" height="20" as="geometry" />
        </mxCell>
        <mxCell id="vaEcrT902pSk5SKOPkYp-7" value="" style="whiteSpace=wrap;html=1;aspect=fixed;fontStyle=1" vertex="1" parent="vaEcrT902pSk5SKOPkYp-1">
          <mxGeometry x="217" y="230" width="50" height="50" as="geometry" />
        </mxCell>
        <mxCell id="vaEcrT902pSk5SKOPkYp-8" value="" style="whiteSpace=wrap;html=1;aspect=fixed;fontStyle=1" vertex="1" parent="vaEcrT902pSk5SKOPkYp-1">
          <mxGeometry x="267" y="230" width="50" height="50" as="geometry" />
        </mxCell>
        <mxCell id="vaEcrT902pSk5SKOPkYp-9" value="" style="whiteSpace=wrap;html=1;aspect=fixed;fontStyle=1" vertex="1" parent="vaEcrT902pSk5SKOPkYp-1">
          <mxGeometry x="317" y="230" width="50" height="50" as="geometry" />
        </mxCell>
        <mxCell id="vaEcrT902pSk5SKOPkYp-10" value="" style="whiteSpace=wrap;html=1;aspect=fixed;fontStyle=1" vertex="1" parent="vaEcrT902pSk5SKOPkYp-1">
          <mxGeometry x="362" y="230" width="50" height="50" as="geometry" />
        </mxCell>
        <mxCell id="vaEcrT902pSk5SKOPkYp-11" value="" style="whiteSpace=wrap;html=1;aspect=fixed;fontStyle=1" vertex="1" parent="vaEcrT902pSk5SKOPkYp-1">
          <mxGeometry x="412" y="230" width="50" height="50" as="geometry" />
        </mxCell>
        <mxCell id="vaEcrT902pSk5SKOPkYp-12" value="" style="whiteSpace=wrap;html=1;aspect=fixed;fontStyle=1" vertex="1" parent="vaEcrT902pSk5SKOPkYp-1">
          <mxGeometry x="460" y="230" width="50" height="50" as="geometry" />
        </mxCell>
        <mxCell id="vaEcrT902pSk5SKOPkYp-13" value="" style="whiteSpace=wrap;html=1;aspect=fixed;fontStyle=1" vertex="1" parent="vaEcrT902pSk5SKOPkYp-1">
          <mxGeometry x="505" y="230" width="50" height="50" as="geometry" />
        </mxCell>
        <mxCell id="vaEcrT902pSk5SKOPkYp-14" value="" style="whiteSpace=wrap;html=1;aspect=fixed;fontStyle=1" vertex="1" parent="vaEcrT902pSk5SKOPkYp-1">
          <mxGeometry x="555" y="230" width="50" height="50" as="geometry" />
        </mxCell>
        <mxCell id="vaEcrT902pSk5SKOPkYp-15" value="" style="whiteSpace=wrap;html=1;aspect=fixed;fontStyle=1" vertex="1" parent="vaEcrT902pSk5SKOPkYp-1">
          <mxGeometry x="605" y="230" width="50" height="50" as="geometry" />
        </mxCell>
        <mxCell id="vaEcrT902pSk5SKOPkYp-16" value="1" style="text;html=1;align=center;verticalAlign=middle;whiteSpace=wrap;rounded=0;fontSize=16;fontStyle=1" vertex="1" parent="vaEcrT902pSk5SKOPkYp-1">
          <mxGeometry x="232" y="210" width="20" height="20" as="geometry" />
        </mxCell>
        <mxCell id="vaEcrT902pSk5SKOPkYp-17" value="2" style="text;html=1;align=center;verticalAlign=middle;whiteSpace=wrap;rounded=0;fontSize=16;fontStyle=1" vertex="1" parent="vaEcrT902pSk5SKOPkYp-1">
          <mxGeometry x="282" y="210" width="20" height="20" as="geometry" />
        </mxCell>
        <mxCell id="vaEcrT902pSk5SKOPkYp-18" value="3" style="text;html=1;align=center;verticalAlign=middle;whiteSpace=wrap;rounded=0;fontSize=16;fontStyle=1" vertex="1" parent="vaEcrT902pSk5SKOPkYp-1">
          <mxGeometry x="331" y="210" width="20" height="20" as="geometry" />
        </mxCell>
        <mxCell id="vaEcrT902pSk5SKOPkYp-19" value="4" style="text;html=1;align=center;verticalAlign=middle;whiteSpace=wrap;rounded=0;fontSize=16;fontStyle=1" vertex="1" parent="vaEcrT902pSk5SKOPkYp-1">
          <mxGeometry x="377" y="210" width="20" height="20" as="geometry" />
        </mxCell>
        <mxCell id="vaEcrT902pSk5SKOPkYp-20" value="5" style="text;html=1;align=center;verticalAlign=middle;whiteSpace=wrap;rounded=0;fontSize=16;fontStyle=1" vertex="1" parent="vaEcrT902pSk5SKOPkYp-1">
          <mxGeometry x="427" y="210" width="20" height="20" as="geometry" />
        </mxCell>
        <mxCell id="vaEcrT902pSk5SKOPkYp-21" value="6" style="text;html=1;align=center;verticalAlign=middle;whiteSpace=wrap;rounded=0;fontSize=16;fontStyle=1" vertex="1" parent="vaEcrT902pSk5SKOPkYp-1">
          <mxGeometry x="475" y="210" width="20" height="20" as="geometry" />
        </mxCell>
        <mxCell id="vaEcrT902pSk5SKOPkYp-22" value="7" style="text;html=1;align=center;verticalAlign=middle;whiteSpace=wrap;rounded=0;fontSize=16;fontStyle=1" vertex="1" parent="vaEcrT902pSk5SKOPkYp-1">
          <mxGeometry x="520" y="210" width="20" height="20" as="geometry" />
        </mxCell>
        <mxCell id="vaEcrT902pSk5SKOPkYp-23" value="8" style="text;html=1;align=center;verticalAlign=middle;whiteSpace=wrap;rounded=0;fontSize=16;fontStyle=1" vertex="1" parent="vaEcrT902pSk5SKOPkYp-1">
          <mxGeometry x="570" y="210" width="20" height="20" as="geometry" />
        </mxCell>
        <mxCell id="vaEcrT902pSk5SKOPkYp-24" value="9" style="text;html=1;align=center;verticalAlign=middle;whiteSpace=wrap;rounded=0;fontSize=16;fontStyle=1" vertex="1" parent="vaEcrT902pSk5SKOPkYp-1">
          <mxGeometry x="620" y="210" width="20" height="20" as="geometry" />
        </mxCell>
        <mxCell id="vaEcrT902pSk5SKOPkYp-25" value="13" style="text;html=1;align=center;verticalAlign=middle;whiteSpace=wrap;rounded=0;fontSize=16;fontStyle=1" vertex="1" parent="vaEcrT902pSk5SKOPkYp-1">
          <mxGeometry x="332" y="245" width="20" height="20" as="geometry" />
        </mxCell>
        <mxCell id="vaEcrT902pSk5SKOPkYp-26" value="11" style="text;html=1;align=center;verticalAlign=middle;whiteSpace=wrap;rounded=0;fontSize=16;fontStyle=1" vertex="1" parent="vaEcrT902pSk5SKOPkYp-1">
          <mxGeometry x="232" y="245" width="20" height="20" as="geometry" />
        </mxCell>
        <mxCell id="vaEcrT902pSk5SKOPkYp-27" value="21" style="text;html=1;align=center;verticalAlign=middle;whiteSpace=wrap;rounded=0;fontSize=16;fontStyle=1" vertex="1" parent="vaEcrT902pSk5SKOPkYp-1">
          <mxGeometry x="282" y="245" width="20" height="20" as="geometry" />
        </mxCell>
        <mxCell id="vaEcrT902pSk5SKOPkYp-28" value="7" style="text;html=1;align=center;verticalAlign=middle;whiteSpace=wrap;rounded=0;fontSize=16;fontStyle=1" vertex="1" parent="vaEcrT902pSk5SKOPkYp-1">
          <mxGeometry x="520" y="245" width="20" height="20" as="geometry" />
        </mxCell>
        <mxCell id="ziWWhdNzSjRe-2guA7qV-0" value="60" style="text;html=1;align=center;verticalAlign=middle;whiteSpace=wrap;rounded=0;fontSize=16;fontStyle=1" vertex="1" parent="vaEcrT902pSk5SKOPkYp-1">
          <mxGeometry x="187" y="245" width="20" height="20" as="geometry" />
        </mxCell>
      </root>
    </mxGraphModel>
  </diagram>
  <diagram name="7" id="--QBGrruszUYowzToFKj">
    <mxGraphModel dx="1434" dy="780" grid="1" gridSize="10" guides="1" tooltips="1" connect="1" arrows="1" fold="1" page="1" pageScale="1" pageWidth="827" pageHeight="1169" math="0" shadow="0">
      <root>
        <mxCell id="k5NgaY4lb1P50_5-6VOX-0" />
        <mxCell id="k5NgaY4lb1P50_5-6VOX-1" parent="k5NgaY4lb1P50_5-6VOX-0" />
        <mxCell id="k5NgaY4lb1P50_5-6VOX-2" value="Tamanho = 10" style="text;html=1;align=center;verticalAlign=middle;whiteSpace=wrap;rounded=0;fontSize=16;fontStyle=1" vertex="1" parent="k5NgaY4lb1P50_5-6VOX-1">
          <mxGeometry x="354" y="50" width="119" height="30" as="geometry" />
        </mxCell>
        <mxCell id="k5NgaY4lb1P50_5-6VOX-3" value="Insere 3" style="rounded=1;whiteSpace=wrap;html=1;fontSize=16;" vertex="1" parent="k5NgaY4lb1P50_5-6VOX-1">
          <mxGeometry x="680" y="40" width="110" height="40" as="geometry" />
        </mxCell>
        <mxCell id="k5NgaY4lb1P50_5-6VOX-4" value="posicao = 3 % 10 = 3" style="text;html=1;align=center;verticalAlign=middle;whiteSpace=wrap;rounded=0;fontSize=16;fontStyle=0" vertex="1" parent="k5NgaY4lb1P50_5-6VOX-1">
          <mxGeometry x="314" y="90" width="199" height="30" as="geometry" />
        </mxCell>
        <mxCell id="k5NgaY4lb1P50_5-6VOX-5" value="" style="whiteSpace=wrap;html=1;aspect=fixed;fontStyle=1" vertex="1" parent="k5NgaY4lb1P50_5-6VOX-1">
          <mxGeometry x="172" y="230" width="50" height="50" as="geometry" />
        </mxCell>
        <mxCell id="k5NgaY4lb1P50_5-6VOX-6" value="0" style="text;html=1;align=center;verticalAlign=middle;whiteSpace=wrap;rounded=0;fontSize=16;fontStyle=1" vertex="1" parent="k5NgaY4lb1P50_5-6VOX-1">
          <mxGeometry x="187" y="210" width="20" height="20" as="geometry" />
        </mxCell>
        <mxCell id="k5NgaY4lb1P50_5-6VOX-7" value="" style="whiteSpace=wrap;html=1;aspect=fixed;fontStyle=1" vertex="1" parent="k5NgaY4lb1P50_5-6VOX-1">
          <mxGeometry x="217" y="230" width="50" height="50" as="geometry" />
        </mxCell>
        <mxCell id="k5NgaY4lb1P50_5-6VOX-8" value="" style="whiteSpace=wrap;html=1;aspect=fixed;fontStyle=1" vertex="1" parent="k5NgaY4lb1P50_5-6VOX-1">
          <mxGeometry x="267" y="230" width="50" height="50" as="geometry" />
        </mxCell>
        <mxCell id="k5NgaY4lb1P50_5-6VOX-9" value="" style="whiteSpace=wrap;html=1;aspect=fixed;fontStyle=1" vertex="1" parent="k5NgaY4lb1P50_5-6VOX-1">
          <mxGeometry x="317" y="230" width="50" height="50" as="geometry" />
        </mxCell>
        <mxCell id="k5NgaY4lb1P50_5-6VOX-10" value="" style="whiteSpace=wrap;html=1;aspect=fixed;fontStyle=1" vertex="1" parent="k5NgaY4lb1P50_5-6VOX-1">
          <mxGeometry x="362" y="230" width="50" height="50" as="geometry" />
        </mxCell>
        <mxCell id="k5NgaY4lb1P50_5-6VOX-11" value="" style="whiteSpace=wrap;html=1;aspect=fixed;fontStyle=1" vertex="1" parent="k5NgaY4lb1P50_5-6VOX-1">
          <mxGeometry x="412" y="230" width="50" height="50" as="geometry" />
        </mxCell>
        <mxCell id="k5NgaY4lb1P50_5-6VOX-12" value="" style="whiteSpace=wrap;html=1;aspect=fixed;fontStyle=1" vertex="1" parent="k5NgaY4lb1P50_5-6VOX-1">
          <mxGeometry x="460" y="230" width="50" height="50" as="geometry" />
        </mxCell>
        <mxCell id="k5NgaY4lb1P50_5-6VOX-13" value="" style="whiteSpace=wrap;html=1;aspect=fixed;fontStyle=1" vertex="1" parent="k5NgaY4lb1P50_5-6VOX-1">
          <mxGeometry x="505" y="230" width="50" height="50" as="geometry" />
        </mxCell>
        <mxCell id="k5NgaY4lb1P50_5-6VOX-14" value="" style="whiteSpace=wrap;html=1;aspect=fixed;fontStyle=1" vertex="1" parent="k5NgaY4lb1P50_5-6VOX-1">
          <mxGeometry x="555" y="230" width="50" height="50" as="geometry" />
        </mxCell>
        <mxCell id="k5NgaY4lb1P50_5-6VOX-15" value="" style="whiteSpace=wrap;html=1;aspect=fixed;fontStyle=1" vertex="1" parent="k5NgaY4lb1P50_5-6VOX-1">
          <mxGeometry x="605" y="230" width="50" height="50" as="geometry" />
        </mxCell>
        <mxCell id="k5NgaY4lb1P50_5-6VOX-16" value="1" style="text;html=1;align=center;verticalAlign=middle;whiteSpace=wrap;rounded=0;fontSize=16;fontStyle=1" vertex="1" parent="k5NgaY4lb1P50_5-6VOX-1">
          <mxGeometry x="232" y="210" width="20" height="20" as="geometry" />
        </mxCell>
        <mxCell id="k5NgaY4lb1P50_5-6VOX-17" value="2" style="text;html=1;align=center;verticalAlign=middle;whiteSpace=wrap;rounded=0;fontSize=16;fontStyle=1" vertex="1" parent="k5NgaY4lb1P50_5-6VOX-1">
          <mxGeometry x="282" y="210" width="20" height="20" as="geometry" />
        </mxCell>
        <mxCell id="k5NgaY4lb1P50_5-6VOX-18" value="3" style="text;html=1;align=center;verticalAlign=middle;whiteSpace=wrap;rounded=0;fontSize=16;fontStyle=1" vertex="1" parent="k5NgaY4lb1P50_5-6VOX-1">
          <mxGeometry x="331" y="210" width="20" height="20" as="geometry" />
        </mxCell>
        <mxCell id="k5NgaY4lb1P50_5-6VOX-19" value="4" style="text;html=1;align=center;verticalAlign=middle;whiteSpace=wrap;rounded=0;fontSize=16;fontStyle=1" vertex="1" parent="k5NgaY4lb1P50_5-6VOX-1">
          <mxGeometry x="377" y="210" width="20" height="20" as="geometry" />
        </mxCell>
        <mxCell id="k5NgaY4lb1P50_5-6VOX-20" value="5" style="text;html=1;align=center;verticalAlign=middle;whiteSpace=wrap;rounded=0;fontSize=16;fontStyle=1" vertex="1" parent="k5NgaY4lb1P50_5-6VOX-1">
          <mxGeometry x="427" y="210" width="20" height="20" as="geometry" />
        </mxCell>
        <mxCell id="k5NgaY4lb1P50_5-6VOX-21" value="6" style="text;html=1;align=center;verticalAlign=middle;whiteSpace=wrap;rounded=0;fontSize=16;fontStyle=1" vertex="1" parent="k5NgaY4lb1P50_5-6VOX-1">
          <mxGeometry x="475" y="210" width="20" height="20" as="geometry" />
        </mxCell>
        <mxCell id="k5NgaY4lb1P50_5-6VOX-22" value="7" style="text;html=1;align=center;verticalAlign=middle;whiteSpace=wrap;rounded=0;fontSize=16;fontStyle=1" vertex="1" parent="k5NgaY4lb1P50_5-6VOX-1">
          <mxGeometry x="520" y="210" width="20" height="20" as="geometry" />
        </mxCell>
        <mxCell id="k5NgaY4lb1P50_5-6VOX-23" value="8" style="text;html=1;align=center;verticalAlign=middle;whiteSpace=wrap;rounded=0;fontSize=16;fontStyle=1" vertex="1" parent="k5NgaY4lb1P50_5-6VOX-1">
          <mxGeometry x="570" y="210" width="20" height="20" as="geometry" />
        </mxCell>
        <mxCell id="k5NgaY4lb1P50_5-6VOX-24" value="9" style="text;html=1;align=center;verticalAlign=middle;whiteSpace=wrap;rounded=0;fontSize=16;fontStyle=1" vertex="1" parent="k5NgaY4lb1P50_5-6VOX-1">
          <mxGeometry x="620" y="210" width="20" height="20" as="geometry" />
        </mxCell>
        <mxCell id="k5NgaY4lb1P50_5-6VOX-25" value="13" style="text;html=1;align=center;verticalAlign=middle;whiteSpace=wrap;rounded=0;fontSize=16;fontStyle=1" vertex="1" parent="k5NgaY4lb1P50_5-6VOX-1">
          <mxGeometry x="332" y="245" width="20" height="20" as="geometry" />
        </mxCell>
        <mxCell id="k5NgaY4lb1P50_5-6VOX-26" value="11" style="text;html=1;align=center;verticalAlign=middle;whiteSpace=wrap;rounded=0;fontSize=16;fontStyle=1" vertex="1" parent="k5NgaY4lb1P50_5-6VOX-1">
          <mxGeometry x="232" y="245" width="20" height="20" as="geometry" />
        </mxCell>
        <mxCell id="k5NgaY4lb1P50_5-6VOX-27" value="21" style="text;html=1;align=center;verticalAlign=middle;whiteSpace=wrap;rounded=0;fontSize=16;fontStyle=1" vertex="1" parent="k5NgaY4lb1P50_5-6VOX-1">
          <mxGeometry x="282" y="245" width="20" height="20" as="geometry" />
        </mxCell>
        <mxCell id="k5NgaY4lb1P50_5-6VOX-28" value="7" style="text;html=1;align=center;verticalAlign=middle;whiteSpace=wrap;rounded=0;fontSize=16;fontStyle=1" vertex="1" parent="k5NgaY4lb1P50_5-6VOX-1">
          <mxGeometry x="520" y="245" width="20" height="20" as="geometry" />
        </mxCell>
        <mxCell id="k5NgaY4lb1P50_5-6VOX-29" value="60" style="text;html=1;align=center;verticalAlign=middle;whiteSpace=wrap;rounded=0;fontSize=16;fontStyle=1" vertex="1" parent="k5NgaY4lb1P50_5-6VOX-1">
          <mxGeometry x="187" y="245" width="20" height="20" as="geometry" />
        </mxCell>
        <mxCell id="g1gTyZV6FA-cJwXdhcOx-0" value="3" style="text;html=1;align=center;verticalAlign=middle;whiteSpace=wrap;rounded=0;fontSize=16;fontStyle=1" vertex="1" parent="k5NgaY4lb1P50_5-6VOX-1">
          <mxGeometry x="377" y="245" width="20" height="20" as="geometry" />
        </mxCell>
      </root>
    </mxGraphModel>
  </diagram>
  <diagram name="8" id="BX4VRn4LUY4c2FujgLZN">
    <mxGraphModel dx="1434" dy="780" grid="1" gridSize="10" guides="1" tooltips="1" connect="1" arrows="1" fold="1" page="1" pageScale="1" pageWidth="827" pageHeight="1169" math="0" shadow="0">
      <root>
        <mxCell id="EibLuM1z15zBiA8mmito-0" />
        <mxCell id="EibLuM1z15zBiA8mmito-1" parent="EibLuM1z15zBiA8mmito-0" />
        <mxCell id="EibLuM1z15zBiA8mmito-2" value="Tamanho = 10" style="text;html=1;align=center;verticalAlign=middle;whiteSpace=wrap;rounded=0;fontSize=16;fontStyle=1" vertex="1" parent="EibLuM1z15zBiA8mmito-1">
          <mxGeometry x="354" y="50" width="119" height="30" as="geometry" />
        </mxCell>
        <mxCell id="EibLuM1z15zBiA8mmito-3" value="Insere 81" style="rounded=1;whiteSpace=wrap;html=1;fontSize=16;" vertex="1" parent="EibLuM1z15zBiA8mmito-1">
          <mxGeometry x="680" y="40" width="110" height="40" as="geometry" />
        </mxCell>
        <mxCell id="EibLuM1z15zBiA8mmito-4" value="posicao = 81 % 10 = 1" style="text;html=1;align=center;verticalAlign=middle;whiteSpace=wrap;rounded=0;fontSize=16;fontStyle=0" vertex="1" parent="EibLuM1z15zBiA8mmito-1">
          <mxGeometry x="314" y="90" width="199" height="30" as="geometry" />
        </mxCell>
        <mxCell id="EibLuM1z15zBiA8mmito-5" value="" style="whiteSpace=wrap;html=1;aspect=fixed;fontStyle=1" vertex="1" parent="EibLuM1z15zBiA8mmito-1">
          <mxGeometry x="172" y="230" width="50" height="50" as="geometry" />
        </mxCell>
        <mxCell id="EibLuM1z15zBiA8mmito-6" value="0" style="text;html=1;align=center;verticalAlign=middle;whiteSpace=wrap;rounded=0;fontSize=16;fontStyle=1" vertex="1" parent="EibLuM1z15zBiA8mmito-1">
          <mxGeometry x="187" y="210" width="20" height="20" as="geometry" />
        </mxCell>
        <mxCell id="EibLuM1z15zBiA8mmito-7" value="" style="whiteSpace=wrap;html=1;aspect=fixed;fontStyle=1" vertex="1" parent="EibLuM1z15zBiA8mmito-1">
          <mxGeometry x="217" y="230" width="50" height="50" as="geometry" />
        </mxCell>
        <mxCell id="EibLuM1z15zBiA8mmito-8" value="" style="whiteSpace=wrap;html=1;aspect=fixed;fontStyle=1" vertex="1" parent="EibLuM1z15zBiA8mmito-1">
          <mxGeometry x="267" y="230" width="50" height="50" as="geometry" />
        </mxCell>
        <mxCell id="EibLuM1z15zBiA8mmito-9" value="" style="whiteSpace=wrap;html=1;aspect=fixed;fontStyle=1" vertex="1" parent="EibLuM1z15zBiA8mmito-1">
          <mxGeometry x="317" y="230" width="50" height="50" as="geometry" />
        </mxCell>
        <mxCell id="EibLuM1z15zBiA8mmito-10" value="" style="whiteSpace=wrap;html=1;aspect=fixed;fontStyle=1" vertex="1" parent="EibLuM1z15zBiA8mmito-1">
          <mxGeometry x="362" y="230" width="50" height="50" as="geometry" />
        </mxCell>
        <mxCell id="EibLuM1z15zBiA8mmito-11" value="" style="whiteSpace=wrap;html=1;aspect=fixed;fontStyle=1" vertex="1" parent="EibLuM1z15zBiA8mmito-1">
          <mxGeometry x="412" y="230" width="50" height="50" as="geometry" />
        </mxCell>
        <mxCell id="EibLuM1z15zBiA8mmito-12" value="" style="whiteSpace=wrap;html=1;aspect=fixed;fontStyle=1" vertex="1" parent="EibLuM1z15zBiA8mmito-1">
          <mxGeometry x="460" y="230" width="50" height="50" as="geometry" />
        </mxCell>
        <mxCell id="EibLuM1z15zBiA8mmito-13" value="" style="whiteSpace=wrap;html=1;aspect=fixed;fontStyle=1" vertex="1" parent="EibLuM1z15zBiA8mmito-1">
          <mxGeometry x="505" y="230" width="50" height="50" as="geometry" />
        </mxCell>
        <mxCell id="EibLuM1z15zBiA8mmito-14" value="" style="whiteSpace=wrap;html=1;aspect=fixed;fontStyle=1" vertex="1" parent="EibLuM1z15zBiA8mmito-1">
          <mxGeometry x="555" y="230" width="50" height="50" as="geometry" />
        </mxCell>
        <mxCell id="EibLuM1z15zBiA8mmito-15" value="" style="whiteSpace=wrap;html=1;aspect=fixed;fontStyle=1" vertex="1" parent="EibLuM1z15zBiA8mmito-1">
          <mxGeometry x="605" y="230" width="50" height="50" as="geometry" />
        </mxCell>
        <mxCell id="EibLuM1z15zBiA8mmito-16" value="1" style="text;html=1;align=center;verticalAlign=middle;whiteSpace=wrap;rounded=0;fontSize=16;fontStyle=1" vertex="1" parent="EibLuM1z15zBiA8mmito-1">
          <mxGeometry x="232" y="210" width="20" height="20" as="geometry" />
        </mxCell>
        <mxCell id="EibLuM1z15zBiA8mmito-17" value="2" style="text;html=1;align=center;verticalAlign=middle;whiteSpace=wrap;rounded=0;fontSize=16;fontStyle=1" vertex="1" parent="EibLuM1z15zBiA8mmito-1">
          <mxGeometry x="282" y="210" width="20" height="20" as="geometry" />
        </mxCell>
        <mxCell id="EibLuM1z15zBiA8mmito-18" value="3" style="text;html=1;align=center;verticalAlign=middle;whiteSpace=wrap;rounded=0;fontSize=16;fontStyle=1" vertex="1" parent="EibLuM1z15zBiA8mmito-1">
          <mxGeometry x="331" y="210" width="20" height="20" as="geometry" />
        </mxCell>
        <mxCell id="EibLuM1z15zBiA8mmito-19" value="4" style="text;html=1;align=center;verticalAlign=middle;whiteSpace=wrap;rounded=0;fontSize=16;fontStyle=1" vertex="1" parent="EibLuM1z15zBiA8mmito-1">
          <mxGeometry x="377" y="210" width="20" height="20" as="geometry" />
        </mxCell>
        <mxCell id="EibLuM1z15zBiA8mmito-20" value="5" style="text;html=1;align=center;verticalAlign=middle;whiteSpace=wrap;rounded=0;fontSize=16;fontStyle=1" vertex="1" parent="EibLuM1z15zBiA8mmito-1">
          <mxGeometry x="427" y="210" width="20" height="20" as="geometry" />
        </mxCell>
        <mxCell id="EibLuM1z15zBiA8mmito-21" value="6" style="text;html=1;align=center;verticalAlign=middle;whiteSpace=wrap;rounded=0;fontSize=16;fontStyle=1" vertex="1" parent="EibLuM1z15zBiA8mmito-1">
          <mxGeometry x="475" y="210" width="20" height="20" as="geometry" />
        </mxCell>
        <mxCell id="EibLuM1z15zBiA8mmito-22" value="7" style="text;html=1;align=center;verticalAlign=middle;whiteSpace=wrap;rounded=0;fontSize=16;fontStyle=1" vertex="1" parent="EibLuM1z15zBiA8mmito-1">
          <mxGeometry x="520" y="210" width="20" height="20" as="geometry" />
        </mxCell>
        <mxCell id="EibLuM1z15zBiA8mmito-23" value="8" style="text;html=1;align=center;verticalAlign=middle;whiteSpace=wrap;rounded=0;fontSize=16;fontStyle=1" vertex="1" parent="EibLuM1z15zBiA8mmito-1">
          <mxGeometry x="570" y="210" width="20" height="20" as="geometry" />
        </mxCell>
        <mxCell id="EibLuM1z15zBiA8mmito-24" value="9" style="text;html=1;align=center;verticalAlign=middle;whiteSpace=wrap;rounded=0;fontSize=16;fontStyle=1" vertex="1" parent="EibLuM1z15zBiA8mmito-1">
          <mxGeometry x="620" y="210" width="20" height="20" as="geometry" />
        </mxCell>
        <mxCell id="EibLuM1z15zBiA8mmito-25" value="13" style="text;html=1;align=center;verticalAlign=middle;whiteSpace=wrap;rounded=0;fontSize=16;fontStyle=1" vertex="1" parent="EibLuM1z15zBiA8mmito-1">
          <mxGeometry x="332" y="245" width="20" height="20" as="geometry" />
        </mxCell>
        <mxCell id="EibLuM1z15zBiA8mmito-26" value="11" style="text;html=1;align=center;verticalAlign=middle;whiteSpace=wrap;rounded=0;fontSize=16;fontStyle=1" vertex="1" parent="EibLuM1z15zBiA8mmito-1">
          <mxGeometry x="232" y="245" width="20" height="20" as="geometry" />
        </mxCell>
        <mxCell id="EibLuM1z15zBiA8mmito-27" value="21" style="text;html=1;align=center;verticalAlign=middle;whiteSpace=wrap;rounded=0;fontSize=16;fontStyle=1" vertex="1" parent="EibLuM1z15zBiA8mmito-1">
          <mxGeometry x="282" y="245" width="20" height="20" as="geometry" />
        </mxCell>
        <mxCell id="EibLuM1z15zBiA8mmito-28" value="7" style="text;html=1;align=center;verticalAlign=middle;whiteSpace=wrap;rounded=0;fontSize=16;fontStyle=1" vertex="1" parent="EibLuM1z15zBiA8mmito-1">
          <mxGeometry x="520" y="245" width="20" height="20" as="geometry" />
        </mxCell>
        <mxCell id="EibLuM1z15zBiA8mmito-29" value="60" style="text;html=1;align=center;verticalAlign=middle;whiteSpace=wrap;rounded=0;fontSize=16;fontStyle=1" vertex="1" parent="EibLuM1z15zBiA8mmito-1">
          <mxGeometry x="187" y="245" width="20" height="20" as="geometry" />
        </mxCell>
        <mxCell id="EibLuM1z15zBiA8mmito-30" value="3" style="text;html=1;align=center;verticalAlign=middle;whiteSpace=wrap;rounded=0;fontSize=16;fontStyle=1" vertex="1" parent="EibLuM1z15zBiA8mmito-1">
          <mxGeometry x="377" y="245" width="20" height="20" as="geometry" />
        </mxCell>
        <mxCell id="ShYcvTEwDVyI_5QwDbU9-0" value="81" style="text;html=1;align=center;verticalAlign=middle;whiteSpace=wrap;rounded=0;fontSize=16;fontStyle=1" vertex="1" parent="EibLuM1z15zBiA8mmito-1">
          <mxGeometry x="427" y="245" width="20" height="20" as="geometry" />
        </mxCell>
      </root>
    </mxGraphModel>
  </diagram>
  <diagram name="9" id="6YzlyA_15ELx7U2aLtaO">
    <mxGraphModel dx="1434" dy="780" grid="1" gridSize="10" guides="1" tooltips="1" connect="1" arrows="1" fold="1" page="1" pageScale="1" pageWidth="827" pageHeight="1169" math="0" shadow="0">
      <root>
        <mxCell id="dZYOhVJskXAX0yjQWuOS-0" />
        <mxCell id="dZYOhVJskXAX0yjQWuOS-1" parent="dZYOhVJskXAX0yjQWuOS-0" />
        <mxCell id="8FXi2W8zdU-34syP4juH-0" value="Tamanho = 10" style="text;html=1;align=center;verticalAlign=middle;whiteSpace=wrap;rounded=0;fontSize=16;fontStyle=1" vertex="1" parent="dZYOhVJskXAX0yjQWuOS-1">
          <mxGeometry x="354" y="50" width="119" height="30" as="geometry" />
        </mxCell>
        <mxCell id="8FXi2W8zdU-34syP4juH-1" value="Insere 52" style="rounded=1;whiteSpace=wrap;html=1;fontSize=16;" vertex="1" parent="dZYOhVJskXAX0yjQWuOS-1">
          <mxGeometry x="680" y="40" width="110" height="40" as="geometry" />
        </mxCell>
        <mxCell id="8FXi2W8zdU-34syP4juH-2" value="posicao = 52 % 10 = 2" style="text;html=1;align=center;verticalAlign=middle;whiteSpace=wrap;rounded=0;fontSize=16;fontStyle=0" vertex="1" parent="dZYOhVJskXAX0yjQWuOS-1">
          <mxGeometry x="314" y="90" width="199" height="30" as="geometry" />
        </mxCell>
        <mxCell id="8FXi2W8zdU-34syP4juH-3" value="" style="whiteSpace=wrap;html=1;aspect=fixed;fontStyle=1" vertex="1" parent="dZYOhVJskXAX0yjQWuOS-1">
          <mxGeometry x="172" y="230" width="50" height="50" as="geometry" />
        </mxCell>
        <mxCell id="8FXi2W8zdU-34syP4juH-4" value="0" style="text;html=1;align=center;verticalAlign=middle;whiteSpace=wrap;rounded=0;fontSize=16;fontStyle=1" vertex="1" parent="dZYOhVJskXAX0yjQWuOS-1">
          <mxGeometry x="187" y="210" width="20" height="20" as="geometry" />
        </mxCell>
        <mxCell id="8FXi2W8zdU-34syP4juH-5" value="" style="whiteSpace=wrap;html=1;aspect=fixed;fontStyle=1" vertex="1" parent="dZYOhVJskXAX0yjQWuOS-1">
          <mxGeometry x="217" y="230" width="50" height="50" as="geometry" />
        </mxCell>
        <mxCell id="8FXi2W8zdU-34syP4juH-6" value="" style="whiteSpace=wrap;html=1;aspect=fixed;fontStyle=1" vertex="1" parent="dZYOhVJskXAX0yjQWuOS-1">
          <mxGeometry x="267" y="230" width="50" height="50" as="geometry" />
        </mxCell>
        <mxCell id="8FXi2W8zdU-34syP4juH-7" value="" style="whiteSpace=wrap;html=1;aspect=fixed;fontStyle=1" vertex="1" parent="dZYOhVJskXAX0yjQWuOS-1">
          <mxGeometry x="317" y="230" width="50" height="50" as="geometry" />
        </mxCell>
        <mxCell id="8FXi2W8zdU-34syP4juH-8" value="" style="whiteSpace=wrap;html=1;aspect=fixed;fontStyle=1" vertex="1" parent="dZYOhVJskXAX0yjQWuOS-1">
          <mxGeometry x="362" y="230" width="50" height="50" as="geometry" />
        </mxCell>
        <mxCell id="8FXi2W8zdU-34syP4juH-9" value="" style="whiteSpace=wrap;html=1;aspect=fixed;fontStyle=1" vertex="1" parent="dZYOhVJskXAX0yjQWuOS-1">
          <mxGeometry x="412" y="230" width="50" height="50" as="geometry" />
        </mxCell>
        <mxCell id="8FXi2W8zdU-34syP4juH-10" value="" style="whiteSpace=wrap;html=1;aspect=fixed;fontStyle=1" vertex="1" parent="dZYOhVJskXAX0yjQWuOS-1">
          <mxGeometry x="460" y="230" width="50" height="50" as="geometry" />
        </mxCell>
        <mxCell id="8FXi2W8zdU-34syP4juH-11" value="" style="whiteSpace=wrap;html=1;aspect=fixed;fontStyle=1" vertex="1" parent="dZYOhVJskXAX0yjQWuOS-1">
          <mxGeometry x="505" y="230" width="50" height="50" as="geometry" />
        </mxCell>
        <mxCell id="8FXi2W8zdU-34syP4juH-12" value="" style="whiteSpace=wrap;html=1;aspect=fixed;fontStyle=1" vertex="1" parent="dZYOhVJskXAX0yjQWuOS-1">
          <mxGeometry x="555" y="230" width="50" height="50" as="geometry" />
        </mxCell>
        <mxCell id="8FXi2W8zdU-34syP4juH-13" value="" style="whiteSpace=wrap;html=1;aspect=fixed;fontStyle=1" vertex="1" parent="dZYOhVJskXAX0yjQWuOS-1">
          <mxGeometry x="605" y="230" width="50" height="50" as="geometry" />
        </mxCell>
        <mxCell id="8FXi2W8zdU-34syP4juH-14" value="1" style="text;html=1;align=center;verticalAlign=middle;whiteSpace=wrap;rounded=0;fontSize=16;fontStyle=1" vertex="1" parent="dZYOhVJskXAX0yjQWuOS-1">
          <mxGeometry x="232" y="210" width="20" height="20" as="geometry" />
        </mxCell>
        <mxCell id="8FXi2W8zdU-34syP4juH-15" value="2" style="text;html=1;align=center;verticalAlign=middle;whiteSpace=wrap;rounded=0;fontSize=16;fontStyle=1" vertex="1" parent="dZYOhVJskXAX0yjQWuOS-1">
          <mxGeometry x="282" y="210" width="20" height="20" as="geometry" />
        </mxCell>
        <mxCell id="8FXi2W8zdU-34syP4juH-16" value="3" style="text;html=1;align=center;verticalAlign=middle;whiteSpace=wrap;rounded=0;fontSize=16;fontStyle=1" vertex="1" parent="dZYOhVJskXAX0yjQWuOS-1">
          <mxGeometry x="331" y="210" width="20" height="20" as="geometry" />
        </mxCell>
        <mxCell id="8FXi2W8zdU-34syP4juH-17" value="4" style="text;html=1;align=center;verticalAlign=middle;whiteSpace=wrap;rounded=0;fontSize=16;fontStyle=1" vertex="1" parent="dZYOhVJskXAX0yjQWuOS-1">
          <mxGeometry x="377" y="210" width="20" height="20" as="geometry" />
        </mxCell>
        <mxCell id="8FXi2W8zdU-34syP4juH-18" value="5" style="text;html=1;align=center;verticalAlign=middle;whiteSpace=wrap;rounded=0;fontSize=16;fontStyle=1" vertex="1" parent="dZYOhVJskXAX0yjQWuOS-1">
          <mxGeometry x="427" y="210" width="20" height="20" as="geometry" />
        </mxCell>
        <mxCell id="8FXi2W8zdU-34syP4juH-19" value="6" style="text;html=1;align=center;verticalAlign=middle;whiteSpace=wrap;rounded=0;fontSize=16;fontStyle=1" vertex="1" parent="dZYOhVJskXAX0yjQWuOS-1">
          <mxGeometry x="475" y="210" width="20" height="20" as="geometry" />
        </mxCell>
        <mxCell id="8FXi2W8zdU-34syP4juH-20" value="7" style="text;html=1;align=center;verticalAlign=middle;whiteSpace=wrap;rounded=0;fontSize=16;fontStyle=1" vertex="1" parent="dZYOhVJskXAX0yjQWuOS-1">
          <mxGeometry x="520" y="210" width="20" height="20" as="geometry" />
        </mxCell>
        <mxCell id="8FXi2W8zdU-34syP4juH-21" value="8" style="text;html=1;align=center;verticalAlign=middle;whiteSpace=wrap;rounded=0;fontSize=16;fontStyle=1" vertex="1" parent="dZYOhVJskXAX0yjQWuOS-1">
          <mxGeometry x="570" y="210" width="20" height="20" as="geometry" />
        </mxCell>
        <mxCell id="8FXi2W8zdU-34syP4juH-22" value="9" style="text;html=1;align=center;verticalAlign=middle;whiteSpace=wrap;rounded=0;fontSize=16;fontStyle=1" vertex="1" parent="dZYOhVJskXAX0yjQWuOS-1">
          <mxGeometry x="620" y="210" width="20" height="20" as="geometry" />
        </mxCell>
        <mxCell id="8FXi2W8zdU-34syP4juH-23" value="13" style="text;html=1;align=center;verticalAlign=middle;whiteSpace=wrap;rounded=0;fontSize=16;fontStyle=1" vertex="1" parent="dZYOhVJskXAX0yjQWuOS-1">
          <mxGeometry x="332" y="245" width="20" height="20" as="geometry" />
        </mxCell>
        <mxCell id="8FXi2W8zdU-34syP4juH-24" value="11" style="text;html=1;align=center;verticalAlign=middle;whiteSpace=wrap;rounded=0;fontSize=16;fontStyle=1" vertex="1" parent="dZYOhVJskXAX0yjQWuOS-1">
          <mxGeometry x="232" y="245" width="20" height="20" as="geometry" />
        </mxCell>
        <mxCell id="8FXi2W8zdU-34syP4juH-25" value="21" style="text;html=1;align=center;verticalAlign=middle;whiteSpace=wrap;rounded=0;fontSize=16;fontStyle=1" vertex="1" parent="dZYOhVJskXAX0yjQWuOS-1">
          <mxGeometry x="282" y="245" width="20" height="20" as="geometry" />
        </mxCell>
        <mxCell id="8FXi2W8zdU-34syP4juH-26" value="7" style="text;html=1;align=center;verticalAlign=middle;whiteSpace=wrap;rounded=0;fontSize=16;fontStyle=1" vertex="1" parent="dZYOhVJskXAX0yjQWuOS-1">
          <mxGeometry x="520" y="245" width="20" height="20" as="geometry" />
        </mxCell>
        <mxCell id="8FXi2W8zdU-34syP4juH-27" value="60" style="text;html=1;align=center;verticalAlign=middle;whiteSpace=wrap;rounded=0;fontSize=16;fontStyle=1" vertex="1" parent="dZYOhVJskXAX0yjQWuOS-1">
          <mxGeometry x="187" y="245" width="20" height="20" as="geometry" />
        </mxCell>
        <mxCell id="8FXi2W8zdU-34syP4juH-28" value="3" style="text;html=1;align=center;verticalAlign=middle;whiteSpace=wrap;rounded=0;fontSize=16;fontStyle=1" vertex="1" parent="dZYOhVJskXAX0yjQWuOS-1">
          <mxGeometry x="377" y="245" width="20" height="20" as="geometry" />
        </mxCell>
        <mxCell id="8FXi2W8zdU-34syP4juH-29" value="81" style="text;html=1;align=center;verticalAlign=middle;whiteSpace=wrap;rounded=0;fontSize=16;fontStyle=1" vertex="1" parent="dZYOhVJskXAX0yjQWuOS-1">
          <mxGeometry x="427" y="245" width="20" height="20" as="geometry" />
        </mxCell>
        <mxCell id="8FXi2W8zdU-34syP4juH-30" value="52" style="text;html=1;align=center;verticalAlign=middle;whiteSpace=wrap;rounded=0;fontSize=16;fontStyle=1" vertex="1" parent="dZYOhVJskXAX0yjQWuOS-1">
          <mxGeometry x="475" y="245" width="20" height="20" as="geometry" />
        </mxCell>
      </root>
    </mxGraphModel>
  </diagram>
  <diagram name="10" id="1BvvrPTvUmGJ8Dr9xgA8">
    <mxGraphModel dx="1434" dy="780" grid="1" gridSize="10" guides="1" tooltips="1" connect="1" arrows="1" fold="1" page="1" pageScale="1" pageWidth="827" pageHeight="1169" math="0" shadow="0">
      <root>
        <mxCell id="jTihPhB-gqWThf7Pmk1u-0" />
        <mxCell id="jTihPhB-gqWThf7Pmk1u-1" parent="jTihPhB-gqWThf7Pmk1u-0" />
        <mxCell id="jTihPhB-gqWThf7Pmk1u-2" value="Tamanho = 10" style="text;html=1;align=center;verticalAlign=middle;whiteSpace=wrap;rounded=0;fontSize=16;fontStyle=1" vertex="1" parent="jTihPhB-gqWThf7Pmk1u-1">
          <mxGeometry x="354" y="50" width="119" height="30" as="geometry" />
        </mxCell>
        <mxCell id="jTihPhB-gqWThf7Pmk1u-3" value="Insere 49" style="rounded=1;whiteSpace=wrap;html=1;fontSize=16;" vertex="1" parent="jTihPhB-gqWThf7Pmk1u-1">
          <mxGeometry x="680" y="40" width="110" height="40" as="geometry" />
        </mxCell>
        <mxCell id="jTihPhB-gqWThf7Pmk1u-4" value="posicao = 49 % 10 = 9" style="text;html=1;align=center;verticalAlign=middle;whiteSpace=wrap;rounded=0;fontSize=16;fontStyle=0" vertex="1" parent="jTihPhB-gqWThf7Pmk1u-1">
          <mxGeometry x="314" y="90" width="199" height="30" as="geometry" />
        </mxCell>
        <mxCell id="jTihPhB-gqWThf7Pmk1u-5" value="" style="whiteSpace=wrap;html=1;aspect=fixed;fontStyle=1" vertex="1" parent="jTihPhB-gqWThf7Pmk1u-1">
          <mxGeometry x="172" y="230" width="50" height="50" as="geometry" />
        </mxCell>
        <mxCell id="jTihPhB-gqWThf7Pmk1u-6" value="0" style="text;html=1;align=center;verticalAlign=middle;whiteSpace=wrap;rounded=0;fontSize=16;fontStyle=1" vertex="1" parent="jTihPhB-gqWThf7Pmk1u-1">
          <mxGeometry x="187" y="210" width="20" height="20" as="geometry" />
        </mxCell>
        <mxCell id="jTihPhB-gqWThf7Pmk1u-7" value="" style="whiteSpace=wrap;html=1;aspect=fixed;fontStyle=1" vertex="1" parent="jTihPhB-gqWThf7Pmk1u-1">
          <mxGeometry x="217" y="230" width="50" height="50" as="geometry" />
        </mxCell>
        <mxCell id="jTihPhB-gqWThf7Pmk1u-8" value="" style="whiteSpace=wrap;html=1;aspect=fixed;fontStyle=1" vertex="1" parent="jTihPhB-gqWThf7Pmk1u-1">
          <mxGeometry x="267" y="230" width="50" height="50" as="geometry" />
        </mxCell>
        <mxCell id="jTihPhB-gqWThf7Pmk1u-9" value="" style="whiteSpace=wrap;html=1;aspect=fixed;fontStyle=1" vertex="1" parent="jTihPhB-gqWThf7Pmk1u-1">
          <mxGeometry x="317" y="230" width="50" height="50" as="geometry" />
        </mxCell>
        <mxCell id="jTihPhB-gqWThf7Pmk1u-10" value="" style="whiteSpace=wrap;html=1;aspect=fixed;fontStyle=1" vertex="1" parent="jTihPhB-gqWThf7Pmk1u-1">
          <mxGeometry x="362" y="230" width="50" height="50" as="geometry" />
        </mxCell>
        <mxCell id="jTihPhB-gqWThf7Pmk1u-11" value="" style="whiteSpace=wrap;html=1;aspect=fixed;fontStyle=1" vertex="1" parent="jTihPhB-gqWThf7Pmk1u-1">
          <mxGeometry x="412" y="230" width="50" height="50" as="geometry" />
        </mxCell>
        <mxCell id="jTihPhB-gqWThf7Pmk1u-12" value="" style="whiteSpace=wrap;html=1;aspect=fixed;fontStyle=1" vertex="1" parent="jTihPhB-gqWThf7Pmk1u-1">
          <mxGeometry x="460" y="230" width="50" height="50" as="geometry" />
        </mxCell>
        <mxCell id="jTihPhB-gqWThf7Pmk1u-13" value="" style="whiteSpace=wrap;html=1;aspect=fixed;fontStyle=1" vertex="1" parent="jTihPhB-gqWThf7Pmk1u-1">
          <mxGeometry x="505" y="230" width="50" height="50" as="geometry" />
        </mxCell>
        <mxCell id="jTihPhB-gqWThf7Pmk1u-14" value="" style="whiteSpace=wrap;html=1;aspect=fixed;fontStyle=1" vertex="1" parent="jTihPhB-gqWThf7Pmk1u-1">
          <mxGeometry x="555" y="230" width="50" height="50" as="geometry" />
        </mxCell>
        <mxCell id="jTihPhB-gqWThf7Pmk1u-15" value="" style="whiteSpace=wrap;html=1;aspect=fixed;fontStyle=1" vertex="1" parent="jTihPhB-gqWThf7Pmk1u-1">
          <mxGeometry x="605" y="230" width="50" height="50" as="geometry" />
        </mxCell>
        <mxCell id="jTihPhB-gqWThf7Pmk1u-16" value="1" style="text;html=1;align=center;verticalAlign=middle;whiteSpace=wrap;rounded=0;fontSize=16;fontStyle=1" vertex="1" parent="jTihPhB-gqWThf7Pmk1u-1">
          <mxGeometry x="232" y="210" width="20" height="20" as="geometry" />
        </mxCell>
        <mxCell id="jTihPhB-gqWThf7Pmk1u-17" value="2" style="text;html=1;align=center;verticalAlign=middle;whiteSpace=wrap;rounded=0;fontSize=16;fontStyle=1" vertex="1" parent="jTihPhB-gqWThf7Pmk1u-1">
          <mxGeometry x="282" y="210" width="20" height="20" as="geometry" />
        </mxCell>
        <mxCell id="jTihPhB-gqWThf7Pmk1u-18" value="3" style="text;html=1;align=center;verticalAlign=middle;whiteSpace=wrap;rounded=0;fontSize=16;fontStyle=1" vertex="1" parent="jTihPhB-gqWThf7Pmk1u-1">
          <mxGeometry x="331" y="210" width="20" height="20" as="geometry" />
        </mxCell>
        <mxCell id="jTihPhB-gqWThf7Pmk1u-19" value="4" style="text;html=1;align=center;verticalAlign=middle;whiteSpace=wrap;rounded=0;fontSize=16;fontStyle=1" vertex="1" parent="jTihPhB-gqWThf7Pmk1u-1">
          <mxGeometry x="377" y="210" width="20" height="20" as="geometry" />
        </mxCell>
        <mxCell id="jTihPhB-gqWThf7Pmk1u-20" value="5" style="text;html=1;align=center;verticalAlign=middle;whiteSpace=wrap;rounded=0;fontSize=16;fontStyle=1" vertex="1" parent="jTihPhB-gqWThf7Pmk1u-1">
          <mxGeometry x="427" y="210" width="20" height="20" as="geometry" />
        </mxCell>
        <mxCell id="jTihPhB-gqWThf7Pmk1u-21" value="6" style="text;html=1;align=center;verticalAlign=middle;whiteSpace=wrap;rounded=0;fontSize=16;fontStyle=1" vertex="1" parent="jTihPhB-gqWThf7Pmk1u-1">
          <mxGeometry x="475" y="210" width="20" height="20" as="geometry" />
        </mxCell>
        <mxCell id="jTihPhB-gqWThf7Pmk1u-22" value="7" style="text;html=1;align=center;verticalAlign=middle;whiteSpace=wrap;rounded=0;fontSize=16;fontStyle=1" vertex="1" parent="jTihPhB-gqWThf7Pmk1u-1">
          <mxGeometry x="520" y="210" width="20" height="20" as="geometry" />
        </mxCell>
        <mxCell id="jTihPhB-gqWThf7Pmk1u-23" value="8" style="text;html=1;align=center;verticalAlign=middle;whiteSpace=wrap;rounded=0;fontSize=16;fontStyle=1" vertex="1" parent="jTihPhB-gqWThf7Pmk1u-1">
          <mxGeometry x="570" y="210" width="20" height="20" as="geometry" />
        </mxCell>
        <mxCell id="jTihPhB-gqWThf7Pmk1u-24" value="9" style="text;html=1;align=center;verticalAlign=middle;whiteSpace=wrap;rounded=0;fontSize=16;fontStyle=1" vertex="1" parent="jTihPhB-gqWThf7Pmk1u-1">
          <mxGeometry x="620" y="210" width="20" height="20" as="geometry" />
        </mxCell>
        <mxCell id="jTihPhB-gqWThf7Pmk1u-25" value="13" style="text;html=1;align=center;verticalAlign=middle;whiteSpace=wrap;rounded=0;fontSize=16;fontStyle=1" vertex="1" parent="jTihPhB-gqWThf7Pmk1u-1">
          <mxGeometry x="332" y="245" width="20" height="20" as="geometry" />
        </mxCell>
        <mxCell id="jTihPhB-gqWThf7Pmk1u-26" value="11" style="text;html=1;align=center;verticalAlign=middle;whiteSpace=wrap;rounded=0;fontSize=16;fontStyle=1" vertex="1" parent="jTihPhB-gqWThf7Pmk1u-1">
          <mxGeometry x="232" y="245" width="20" height="20" as="geometry" />
        </mxCell>
        <mxCell id="jTihPhB-gqWThf7Pmk1u-27" value="21" style="text;html=1;align=center;verticalAlign=middle;whiteSpace=wrap;rounded=0;fontSize=16;fontStyle=1" vertex="1" parent="jTihPhB-gqWThf7Pmk1u-1">
          <mxGeometry x="282" y="245" width="20" height="20" as="geometry" />
        </mxCell>
        <mxCell id="jTihPhB-gqWThf7Pmk1u-28" value="7" style="text;html=1;align=center;verticalAlign=middle;whiteSpace=wrap;rounded=0;fontSize=16;fontStyle=1" vertex="1" parent="jTihPhB-gqWThf7Pmk1u-1">
          <mxGeometry x="520" y="245" width="20" height="20" as="geometry" />
        </mxCell>
        <mxCell id="jTihPhB-gqWThf7Pmk1u-29" value="60" style="text;html=1;align=center;verticalAlign=middle;whiteSpace=wrap;rounded=0;fontSize=16;fontStyle=1" vertex="1" parent="jTihPhB-gqWThf7Pmk1u-1">
          <mxGeometry x="187" y="245" width="20" height="20" as="geometry" />
        </mxCell>
        <mxCell id="jTihPhB-gqWThf7Pmk1u-30" value="3" style="text;html=1;align=center;verticalAlign=middle;whiteSpace=wrap;rounded=0;fontSize=16;fontStyle=1" vertex="1" parent="jTihPhB-gqWThf7Pmk1u-1">
          <mxGeometry x="377" y="245" width="20" height="20" as="geometry" />
        </mxCell>
        <mxCell id="jTihPhB-gqWThf7Pmk1u-31" value="81" style="text;html=1;align=center;verticalAlign=middle;whiteSpace=wrap;rounded=0;fontSize=16;fontStyle=1" vertex="1" parent="jTihPhB-gqWThf7Pmk1u-1">
          <mxGeometry x="427" y="245" width="20" height="20" as="geometry" />
        </mxCell>
        <mxCell id="jTihPhB-gqWThf7Pmk1u-32" value="52" style="text;html=1;align=center;verticalAlign=middle;whiteSpace=wrap;rounded=0;fontSize=16;fontStyle=1" vertex="1" parent="jTihPhB-gqWThf7Pmk1u-1">
          <mxGeometry x="475" y="245" width="20" height="20" as="geometry" />
        </mxCell>
        <mxCell id="yofLysRRvdTm5KJD1bVY-0" value="49" style="text;html=1;align=center;verticalAlign=middle;whiteSpace=wrap;rounded=0;fontSize=16;fontStyle=1" vertex="1" parent="jTihPhB-gqWThf7Pmk1u-1">
          <mxGeometry x="620" y="245" width="20" height="20" as="geometry" />
        </mxCell>
      </root>
    </mxGraphModel>
  </diagram>
  <diagram name="11" id="hHHCwdNlJ4ZGSdJyInML">
    <mxGraphModel dx="1434" dy="780" grid="1" gridSize="10" guides="1" tooltips="1" connect="1" arrows="1" fold="1" page="1" pageScale="1" pageWidth="827" pageHeight="1169" math="0" shadow="0">
      <root>
        <mxCell id="5ZNWQwTc_nu5GpClchni-0" />
        <mxCell id="5ZNWQwTc_nu5GpClchni-1" parent="5ZNWQwTc_nu5GpClchni-0" />
        <mxCell id="5ZNWQwTc_nu5GpClchni-2" value="Tamanho = 10" style="text;html=1;align=center;verticalAlign=middle;whiteSpace=wrap;rounded=0;fontSize=16;fontStyle=1" vertex="1" parent="5ZNWQwTc_nu5GpClchni-1">
          <mxGeometry x="354" y="50" width="119" height="30" as="geometry" />
        </mxCell>
        <mxCell id="5ZNWQwTc_nu5GpClchni-3" value="Insere 33" style="rounded=1;whiteSpace=wrap;html=1;fontSize=16;" vertex="1" parent="5ZNWQwTc_nu5GpClchni-1">
          <mxGeometry x="680" y="40" width="110" height="40" as="geometry" />
        </mxCell>
        <mxCell id="5ZNWQwTc_nu5GpClchni-4" value="posicao = 33 % 10 = 3" style="text;html=1;align=center;verticalAlign=middle;whiteSpace=wrap;rounded=0;fontSize=16;fontStyle=0" vertex="1" parent="5ZNWQwTc_nu5GpClchni-1">
          <mxGeometry x="314" y="90" width="199" height="30" as="geometry" />
        </mxCell>
        <mxCell id="5ZNWQwTc_nu5GpClchni-5" value="" style="whiteSpace=wrap;html=1;aspect=fixed;fontStyle=1" vertex="1" parent="5ZNWQwTc_nu5GpClchni-1">
          <mxGeometry x="172" y="230" width="50" height="50" as="geometry" />
        </mxCell>
        <mxCell id="5ZNWQwTc_nu5GpClchni-6" value="0" style="text;html=1;align=center;verticalAlign=middle;whiteSpace=wrap;rounded=0;fontSize=16;fontStyle=1" vertex="1" parent="5ZNWQwTc_nu5GpClchni-1">
          <mxGeometry x="187" y="210" width="20" height="20" as="geometry" />
        </mxCell>
        <mxCell id="5ZNWQwTc_nu5GpClchni-7" value="" style="whiteSpace=wrap;html=1;aspect=fixed;fontStyle=1" vertex="1" parent="5ZNWQwTc_nu5GpClchni-1">
          <mxGeometry x="217" y="230" width="50" height="50" as="geometry" />
        </mxCell>
        <mxCell id="5ZNWQwTc_nu5GpClchni-8" value="" style="whiteSpace=wrap;html=1;aspect=fixed;fontStyle=1" vertex="1" parent="5ZNWQwTc_nu5GpClchni-1">
          <mxGeometry x="267" y="230" width="50" height="50" as="geometry" />
        </mxCell>
        <mxCell id="5ZNWQwTc_nu5GpClchni-9" value="" style="whiteSpace=wrap;html=1;aspect=fixed;fontStyle=1" vertex="1" parent="5ZNWQwTc_nu5GpClchni-1">
          <mxGeometry x="317" y="230" width="50" height="50" as="geometry" />
        </mxCell>
        <mxCell id="5ZNWQwTc_nu5GpClchni-10" value="" style="whiteSpace=wrap;html=1;aspect=fixed;fontStyle=1" vertex="1" parent="5ZNWQwTc_nu5GpClchni-1">
          <mxGeometry x="362" y="230" width="50" height="50" as="geometry" />
        </mxCell>
        <mxCell id="5ZNWQwTc_nu5GpClchni-11" value="" style="whiteSpace=wrap;html=1;aspect=fixed;fontStyle=1" vertex="1" parent="5ZNWQwTc_nu5GpClchni-1">
          <mxGeometry x="412" y="230" width="50" height="50" as="geometry" />
        </mxCell>
        <mxCell id="5ZNWQwTc_nu5GpClchni-12" value="" style="whiteSpace=wrap;html=1;aspect=fixed;fontStyle=1" vertex="1" parent="5ZNWQwTc_nu5GpClchni-1">
          <mxGeometry x="460" y="230" width="50" height="50" as="geometry" />
        </mxCell>
        <mxCell id="5ZNWQwTc_nu5GpClchni-13" value="" style="whiteSpace=wrap;html=1;aspect=fixed;fontStyle=1" vertex="1" parent="5ZNWQwTc_nu5GpClchni-1">
          <mxGeometry x="505" y="230" width="50" height="50" as="geometry" />
        </mxCell>
        <mxCell id="5ZNWQwTc_nu5GpClchni-14" value="" style="whiteSpace=wrap;html=1;aspect=fixed;fontStyle=1" vertex="1" parent="5ZNWQwTc_nu5GpClchni-1">
          <mxGeometry x="555" y="230" width="50" height="50" as="geometry" />
        </mxCell>
        <mxCell id="5ZNWQwTc_nu5GpClchni-15" value="" style="whiteSpace=wrap;html=1;aspect=fixed;fontStyle=1" vertex="1" parent="5ZNWQwTc_nu5GpClchni-1">
          <mxGeometry x="605" y="230" width="50" height="50" as="geometry" />
        </mxCell>
        <mxCell id="5ZNWQwTc_nu5GpClchni-16" value="1" style="text;html=1;align=center;verticalAlign=middle;whiteSpace=wrap;rounded=0;fontSize=16;fontStyle=1" vertex="1" parent="5ZNWQwTc_nu5GpClchni-1">
          <mxGeometry x="232" y="210" width="20" height="20" as="geometry" />
        </mxCell>
        <mxCell id="5ZNWQwTc_nu5GpClchni-17" value="2" style="text;html=1;align=center;verticalAlign=middle;whiteSpace=wrap;rounded=0;fontSize=16;fontStyle=1" vertex="1" parent="5ZNWQwTc_nu5GpClchni-1">
          <mxGeometry x="282" y="210" width="20" height="20" as="geometry" />
        </mxCell>
        <mxCell id="5ZNWQwTc_nu5GpClchni-18" value="3" style="text;html=1;align=center;verticalAlign=middle;whiteSpace=wrap;rounded=0;fontSize=16;fontStyle=1" vertex="1" parent="5ZNWQwTc_nu5GpClchni-1">
          <mxGeometry x="331" y="210" width="20" height="20" as="geometry" />
        </mxCell>
        <mxCell id="5ZNWQwTc_nu5GpClchni-19" value="4" style="text;html=1;align=center;verticalAlign=middle;whiteSpace=wrap;rounded=0;fontSize=16;fontStyle=1" vertex="1" parent="5ZNWQwTc_nu5GpClchni-1">
          <mxGeometry x="377" y="210" width="20" height="20" as="geometry" />
        </mxCell>
        <mxCell id="5ZNWQwTc_nu5GpClchni-20" value="5" style="text;html=1;align=center;verticalAlign=middle;whiteSpace=wrap;rounded=0;fontSize=16;fontStyle=1" vertex="1" parent="5ZNWQwTc_nu5GpClchni-1">
          <mxGeometry x="427" y="210" width="20" height="20" as="geometry" />
        </mxCell>
        <mxCell id="5ZNWQwTc_nu5GpClchni-21" value="6" style="text;html=1;align=center;verticalAlign=middle;whiteSpace=wrap;rounded=0;fontSize=16;fontStyle=1" vertex="1" parent="5ZNWQwTc_nu5GpClchni-1">
          <mxGeometry x="475" y="210" width="20" height="20" as="geometry" />
        </mxCell>
        <mxCell id="5ZNWQwTc_nu5GpClchni-22" value="7" style="text;html=1;align=center;verticalAlign=middle;whiteSpace=wrap;rounded=0;fontSize=16;fontStyle=1" vertex="1" parent="5ZNWQwTc_nu5GpClchni-1">
          <mxGeometry x="520" y="210" width="20" height="20" as="geometry" />
        </mxCell>
        <mxCell id="5ZNWQwTc_nu5GpClchni-23" value="8" style="text;html=1;align=center;verticalAlign=middle;whiteSpace=wrap;rounded=0;fontSize=16;fontStyle=1" vertex="1" parent="5ZNWQwTc_nu5GpClchni-1">
          <mxGeometry x="570" y="210" width="20" height="20" as="geometry" />
        </mxCell>
        <mxCell id="5ZNWQwTc_nu5GpClchni-24" value="9" style="text;html=1;align=center;verticalAlign=middle;whiteSpace=wrap;rounded=0;fontSize=16;fontStyle=1" vertex="1" parent="5ZNWQwTc_nu5GpClchni-1">
          <mxGeometry x="620" y="210" width="20" height="20" as="geometry" />
        </mxCell>
        <mxCell id="5ZNWQwTc_nu5GpClchni-25" value="13" style="text;html=1;align=center;verticalAlign=middle;whiteSpace=wrap;rounded=0;fontSize=16;fontStyle=1" vertex="1" parent="5ZNWQwTc_nu5GpClchni-1">
          <mxGeometry x="332" y="245" width="20" height="20" as="geometry" />
        </mxCell>
        <mxCell id="5ZNWQwTc_nu5GpClchni-26" value="11" style="text;html=1;align=center;verticalAlign=middle;whiteSpace=wrap;rounded=0;fontSize=16;fontStyle=1" vertex="1" parent="5ZNWQwTc_nu5GpClchni-1">
          <mxGeometry x="232" y="245" width="20" height="20" as="geometry" />
        </mxCell>
        <mxCell id="5ZNWQwTc_nu5GpClchni-27" value="21" style="text;html=1;align=center;verticalAlign=middle;whiteSpace=wrap;rounded=0;fontSize=16;fontStyle=1" vertex="1" parent="5ZNWQwTc_nu5GpClchni-1">
          <mxGeometry x="282" y="245" width="20" height="20" as="geometry" />
        </mxCell>
        <mxCell id="5ZNWQwTc_nu5GpClchni-28" value="7" style="text;html=1;align=center;verticalAlign=middle;whiteSpace=wrap;rounded=0;fontSize=16;fontStyle=1" vertex="1" parent="5ZNWQwTc_nu5GpClchni-1">
          <mxGeometry x="520" y="245" width="20" height="20" as="geometry" />
        </mxCell>
        <mxCell id="5ZNWQwTc_nu5GpClchni-29" value="60" style="text;html=1;align=center;verticalAlign=middle;whiteSpace=wrap;rounded=0;fontSize=16;fontStyle=1" vertex="1" parent="5ZNWQwTc_nu5GpClchni-1">
          <mxGeometry x="187" y="245" width="20" height="20" as="geometry" />
        </mxCell>
        <mxCell id="5ZNWQwTc_nu5GpClchni-30" value="3" style="text;html=1;align=center;verticalAlign=middle;whiteSpace=wrap;rounded=0;fontSize=16;fontStyle=1" vertex="1" parent="5ZNWQwTc_nu5GpClchni-1">
          <mxGeometry x="377" y="245" width="20" height="20" as="geometry" />
        </mxCell>
        <mxCell id="5ZNWQwTc_nu5GpClchni-31" value="81" style="text;html=1;align=center;verticalAlign=middle;whiteSpace=wrap;rounded=0;fontSize=16;fontStyle=1" vertex="1" parent="5ZNWQwTc_nu5GpClchni-1">
          <mxGeometry x="427" y="245" width="20" height="20" as="geometry" />
        </mxCell>
        <mxCell id="5ZNWQwTc_nu5GpClchni-32" value="52" style="text;html=1;align=center;verticalAlign=middle;whiteSpace=wrap;rounded=0;fontSize=16;fontStyle=1" vertex="1" parent="5ZNWQwTc_nu5GpClchni-1">
          <mxGeometry x="475" y="245" width="20" height="20" as="geometry" />
        </mxCell>
        <mxCell id="5ZNWQwTc_nu5GpClchni-33" value="49" style="text;html=1;align=center;verticalAlign=middle;whiteSpace=wrap;rounded=0;fontSize=16;fontStyle=1" vertex="1" parent="5ZNWQwTc_nu5GpClchni-1">
          <mxGeometry x="620" y="245" width="20" height="20" as="geometry" />
        </mxCell>
        <mxCell id="s3cagEmmGe4tIi3ITtrh-0" value="33" style="text;html=1;align=center;verticalAlign=middle;whiteSpace=wrap;rounded=0;fontSize=16;fontStyle=1" vertex="1" parent="5ZNWQwTc_nu5GpClchni-1">
          <mxGeometry x="570" y="245" width="20" height="20" as="geometry" />
        </mxCell>
      </root>
    </mxGraphModel>
  </diagram>
  <diagram name="12" id="ft07jnpmkqVki6pecTTg">
    <mxGraphModel dx="1434" dy="780" grid="1" gridSize="10" guides="1" tooltips="1" connect="1" arrows="1" fold="1" page="1" pageScale="1" pageWidth="827" pageHeight="1169" math="0" shadow="0">
      <root>
        <mxCell id="8O3j1Fbb3rSVpiWH_eAw-0" />
        <mxCell id="8O3j1Fbb3rSVpiWH_eAw-1" parent="8O3j1Fbb3rSVpiWH_eAw-0" />
        <mxCell id="8O3j1Fbb3rSVpiWH_eAw-2" value="Tamanho = 10" style="text;html=1;align=center;verticalAlign=middle;whiteSpace=wrap;rounded=0;fontSize=16;fontStyle=1" vertex="1" parent="8O3j1Fbb3rSVpiWH_eAw-1">
          <mxGeometry x="354" y="50" width="119" height="30" as="geometry" />
        </mxCell>
        <mxCell id="8O3j1Fbb3rSVpiWH_eAw-3" value="Remove 13" style="rounded=1;whiteSpace=wrap;html=1;fontSize=16;" vertex="1" parent="8O3j1Fbb3rSVpiWH_eAw-1">
          <mxGeometry x="680" y="40" width="110" height="40" as="geometry" />
        </mxCell>
        <mxCell id="8O3j1Fbb3rSVpiWH_eAw-4" value="posicao = 13 % 10 = 3" style="text;html=1;align=center;verticalAlign=middle;whiteSpace=wrap;rounded=0;fontSize=16;fontStyle=0" vertex="1" parent="8O3j1Fbb3rSVpiWH_eAw-1">
          <mxGeometry x="314" y="90" width="199" height="30" as="geometry" />
        </mxCell>
        <mxCell id="8O3j1Fbb3rSVpiWH_eAw-5" value="" style="whiteSpace=wrap;html=1;aspect=fixed;fontStyle=1" vertex="1" parent="8O3j1Fbb3rSVpiWH_eAw-1">
          <mxGeometry x="172" y="230" width="50" height="50" as="geometry" />
        </mxCell>
        <mxCell id="8O3j1Fbb3rSVpiWH_eAw-6" value="0" style="text;html=1;align=center;verticalAlign=middle;whiteSpace=wrap;rounded=0;fontSize=16;fontStyle=1" vertex="1" parent="8O3j1Fbb3rSVpiWH_eAw-1">
          <mxGeometry x="187" y="210" width="20" height="20" as="geometry" />
        </mxCell>
        <mxCell id="8O3j1Fbb3rSVpiWH_eAw-7" value="" style="whiteSpace=wrap;html=1;aspect=fixed;fontStyle=1" vertex="1" parent="8O3j1Fbb3rSVpiWH_eAw-1">
          <mxGeometry x="217" y="230" width="50" height="50" as="geometry" />
        </mxCell>
        <mxCell id="8O3j1Fbb3rSVpiWH_eAw-8" value="" style="whiteSpace=wrap;html=1;aspect=fixed;fontStyle=1" vertex="1" parent="8O3j1Fbb3rSVpiWH_eAw-1">
          <mxGeometry x="267" y="230" width="50" height="50" as="geometry" />
        </mxCell>
        <mxCell id="8O3j1Fbb3rSVpiWH_eAw-9" value="" style="whiteSpace=wrap;html=1;aspect=fixed;fontStyle=1" vertex="1" parent="8O3j1Fbb3rSVpiWH_eAw-1">
          <mxGeometry x="317" y="230" width="50" height="50" as="geometry" />
        </mxCell>
        <mxCell id="8O3j1Fbb3rSVpiWH_eAw-10" value="" style="whiteSpace=wrap;html=1;aspect=fixed;fontStyle=1" vertex="1" parent="8O3j1Fbb3rSVpiWH_eAw-1">
          <mxGeometry x="362" y="230" width="50" height="50" as="geometry" />
        </mxCell>
        <mxCell id="8O3j1Fbb3rSVpiWH_eAw-11" value="" style="whiteSpace=wrap;html=1;aspect=fixed;fontStyle=1" vertex="1" parent="8O3j1Fbb3rSVpiWH_eAw-1">
          <mxGeometry x="412" y="230" width="50" height="50" as="geometry" />
        </mxCell>
        <mxCell id="8O3j1Fbb3rSVpiWH_eAw-12" value="" style="whiteSpace=wrap;html=1;aspect=fixed;fontStyle=1" vertex="1" parent="8O3j1Fbb3rSVpiWH_eAw-1">
          <mxGeometry x="460" y="230" width="50" height="50" as="geometry" />
        </mxCell>
        <mxCell id="8O3j1Fbb3rSVpiWH_eAw-13" value="" style="whiteSpace=wrap;html=1;aspect=fixed;fontStyle=1" vertex="1" parent="8O3j1Fbb3rSVpiWH_eAw-1">
          <mxGeometry x="505" y="230" width="50" height="50" as="geometry" />
        </mxCell>
        <mxCell id="8O3j1Fbb3rSVpiWH_eAw-14" value="" style="whiteSpace=wrap;html=1;aspect=fixed;fontStyle=1" vertex="1" parent="8O3j1Fbb3rSVpiWH_eAw-1">
          <mxGeometry x="555" y="230" width="50" height="50" as="geometry" />
        </mxCell>
        <mxCell id="8O3j1Fbb3rSVpiWH_eAw-15" value="" style="whiteSpace=wrap;html=1;aspect=fixed;fontStyle=1" vertex="1" parent="8O3j1Fbb3rSVpiWH_eAw-1">
          <mxGeometry x="605" y="230" width="50" height="50" as="geometry" />
        </mxCell>
        <mxCell id="8O3j1Fbb3rSVpiWH_eAw-16" value="1" style="text;html=1;align=center;verticalAlign=middle;whiteSpace=wrap;rounded=0;fontSize=16;fontStyle=1" vertex="1" parent="8O3j1Fbb3rSVpiWH_eAw-1">
          <mxGeometry x="232" y="210" width="20" height="20" as="geometry" />
        </mxCell>
        <mxCell id="8O3j1Fbb3rSVpiWH_eAw-17" value="2" style="text;html=1;align=center;verticalAlign=middle;whiteSpace=wrap;rounded=0;fontSize=16;fontStyle=1" vertex="1" parent="8O3j1Fbb3rSVpiWH_eAw-1">
          <mxGeometry x="282" y="210" width="20" height="20" as="geometry" />
        </mxCell>
        <mxCell id="8O3j1Fbb3rSVpiWH_eAw-18" value="3" style="text;html=1;align=center;verticalAlign=middle;whiteSpace=wrap;rounded=0;fontSize=16;fontStyle=1" vertex="1" parent="8O3j1Fbb3rSVpiWH_eAw-1">
          <mxGeometry x="331" y="210" width="20" height="20" as="geometry" />
        </mxCell>
        <mxCell id="8O3j1Fbb3rSVpiWH_eAw-19" value="4" style="text;html=1;align=center;verticalAlign=middle;whiteSpace=wrap;rounded=0;fontSize=16;fontStyle=1" vertex="1" parent="8O3j1Fbb3rSVpiWH_eAw-1">
          <mxGeometry x="377" y="210" width="20" height="20" as="geometry" />
        </mxCell>
        <mxCell id="8O3j1Fbb3rSVpiWH_eAw-20" value="5" style="text;html=1;align=center;verticalAlign=middle;whiteSpace=wrap;rounded=0;fontSize=16;fontStyle=1" vertex="1" parent="8O3j1Fbb3rSVpiWH_eAw-1">
          <mxGeometry x="427" y="210" width="20" height="20" as="geometry" />
        </mxCell>
        <mxCell id="8O3j1Fbb3rSVpiWH_eAw-21" value="6" style="text;html=1;align=center;verticalAlign=middle;whiteSpace=wrap;rounded=0;fontSize=16;fontStyle=1" vertex="1" parent="8O3j1Fbb3rSVpiWH_eAw-1">
          <mxGeometry x="475" y="210" width="20" height="20" as="geometry" />
        </mxCell>
        <mxCell id="8O3j1Fbb3rSVpiWH_eAw-22" value="7" style="text;html=1;align=center;verticalAlign=middle;whiteSpace=wrap;rounded=0;fontSize=16;fontStyle=1" vertex="1" parent="8O3j1Fbb3rSVpiWH_eAw-1">
          <mxGeometry x="520" y="210" width="20" height="20" as="geometry" />
        </mxCell>
        <mxCell id="8O3j1Fbb3rSVpiWH_eAw-23" value="8" style="text;html=1;align=center;verticalAlign=middle;whiteSpace=wrap;rounded=0;fontSize=16;fontStyle=1" vertex="1" parent="8O3j1Fbb3rSVpiWH_eAw-1">
          <mxGeometry x="570" y="210" width="20" height="20" as="geometry" />
        </mxCell>
        <mxCell id="8O3j1Fbb3rSVpiWH_eAw-24" value="9" style="text;html=1;align=center;verticalAlign=middle;whiteSpace=wrap;rounded=0;fontSize=16;fontStyle=1" vertex="1" parent="8O3j1Fbb3rSVpiWH_eAw-1">
          <mxGeometry x="620" y="210" width="20" height="20" as="geometry" />
        </mxCell>
        <mxCell id="8O3j1Fbb3rSVpiWH_eAw-25" value="-1" style="text;html=1;align=center;verticalAlign=middle;whiteSpace=wrap;rounded=0;fontSize=16;fontStyle=1" vertex="1" parent="8O3j1Fbb3rSVpiWH_eAw-1">
          <mxGeometry x="332" y="245" width="20" height="20" as="geometry" />
        </mxCell>
        <mxCell id="8O3j1Fbb3rSVpiWH_eAw-26" value="11" style="text;html=1;align=center;verticalAlign=middle;whiteSpace=wrap;rounded=0;fontSize=16;fontStyle=1" vertex="1" parent="8O3j1Fbb3rSVpiWH_eAw-1">
          <mxGeometry x="232" y="245" width="20" height="20" as="geometry" />
        </mxCell>
        <mxCell id="8O3j1Fbb3rSVpiWH_eAw-27" value="21" style="text;html=1;align=center;verticalAlign=middle;whiteSpace=wrap;rounded=0;fontSize=16;fontStyle=1" vertex="1" parent="8O3j1Fbb3rSVpiWH_eAw-1">
          <mxGeometry x="282" y="245" width="20" height="20" as="geometry" />
        </mxCell>
        <mxCell id="8O3j1Fbb3rSVpiWH_eAw-28" value="7" style="text;html=1;align=center;verticalAlign=middle;whiteSpace=wrap;rounded=0;fontSize=16;fontStyle=1" vertex="1" parent="8O3j1Fbb3rSVpiWH_eAw-1">
          <mxGeometry x="520" y="245" width="20" height="20" as="geometry" />
        </mxCell>
        <mxCell id="8O3j1Fbb3rSVpiWH_eAw-29" value="60" style="text;html=1;align=center;verticalAlign=middle;whiteSpace=wrap;rounded=0;fontSize=16;fontStyle=1" vertex="1" parent="8O3j1Fbb3rSVpiWH_eAw-1">
          <mxGeometry x="187" y="245" width="20" height="20" as="geometry" />
        </mxCell>
        <mxCell id="8O3j1Fbb3rSVpiWH_eAw-30" value="3" style="text;html=1;align=center;verticalAlign=middle;whiteSpace=wrap;rounded=0;fontSize=16;fontStyle=1" vertex="1" parent="8O3j1Fbb3rSVpiWH_eAw-1">
          <mxGeometry x="377" y="245" width="20" height="20" as="geometry" />
        </mxCell>
        <mxCell id="8O3j1Fbb3rSVpiWH_eAw-31" value="81" style="text;html=1;align=center;verticalAlign=middle;whiteSpace=wrap;rounded=0;fontSize=16;fontStyle=1" vertex="1" parent="8O3j1Fbb3rSVpiWH_eAw-1">
          <mxGeometry x="427" y="245" width="20" height="20" as="geometry" />
        </mxCell>
        <mxCell id="8O3j1Fbb3rSVpiWH_eAw-32" value="52" style="text;html=1;align=center;verticalAlign=middle;whiteSpace=wrap;rounded=0;fontSize=16;fontStyle=1" vertex="1" parent="8O3j1Fbb3rSVpiWH_eAw-1">
          <mxGeometry x="475" y="245" width="20" height="20" as="geometry" />
        </mxCell>
        <mxCell id="8O3j1Fbb3rSVpiWH_eAw-33" value="49" style="text;html=1;align=center;verticalAlign=middle;whiteSpace=wrap;rounded=0;fontSize=16;fontStyle=1" vertex="1" parent="8O3j1Fbb3rSVpiWH_eAw-1">
          <mxGeometry x="620" y="245" width="20" height="20" as="geometry" />
        </mxCell>
        <mxCell id="8O3j1Fbb3rSVpiWH_eAw-34" value="33" style="text;html=1;align=center;verticalAlign=middle;whiteSpace=wrap;rounded=0;fontSize=16;fontStyle=1" vertex="1" parent="8O3j1Fbb3rSVpiWH_eAw-1">
          <mxGeometry x="570" y="245" width="20" height="20" as="geometry" />
        </mxCell>
      </root>
    </mxGraphModel>
  </diagram>
  <diagram name="13" id="CpWtNyrDQ6xVxqMRH8M3">
    <mxGraphModel dx="1434" dy="780" grid="1" gridSize="10" guides="1" tooltips="1" connect="1" arrows="1" fold="1" page="1" pageScale="1" pageWidth="827" pageHeight="1169" math="0" shadow="0">
      <root>
        <mxCell id="pmS_myywoiucnoMyzfQA-0" />
        <mxCell id="pmS_myywoiucnoMyzfQA-1" parent="pmS_myywoiucnoMyzfQA-0" />
        <mxCell id="pmS_myywoiucnoMyzfQA-2" value="Tamanho = 10" style="text;html=1;align=center;verticalAlign=middle;whiteSpace=wrap;rounded=0;fontSize=16;fontStyle=1" vertex="1" parent="pmS_myywoiucnoMyzfQA-1">
          <mxGeometry x="354" y="50" width="119" height="30" as="geometry" />
        </mxCell>
        <mxCell id="pmS_myywoiucnoMyzfQA-3" value="Remove 11" style="rounded=1;whiteSpace=wrap;html=1;fontSize=16;" vertex="1" parent="pmS_myywoiucnoMyzfQA-1">
          <mxGeometry x="680" y="40" width="110" height="40" as="geometry" />
        </mxCell>
        <mxCell id="pmS_myywoiucnoMyzfQA-4" value="posicao = 11 % 10 = 1" style="text;html=1;align=center;verticalAlign=middle;whiteSpace=wrap;rounded=0;fontSize=16;fontStyle=0" vertex="1" parent="pmS_myywoiucnoMyzfQA-1">
          <mxGeometry x="314" y="90" width="199" height="30" as="geometry" />
        </mxCell>
        <mxCell id="pmS_myywoiucnoMyzfQA-5" value="" style="whiteSpace=wrap;html=1;aspect=fixed;fontStyle=1" vertex="1" parent="pmS_myywoiucnoMyzfQA-1">
          <mxGeometry x="172" y="230" width="50" height="50" as="geometry" />
        </mxCell>
        <mxCell id="pmS_myywoiucnoMyzfQA-6" value="0" style="text;html=1;align=center;verticalAlign=middle;whiteSpace=wrap;rounded=0;fontSize=16;fontStyle=1" vertex="1" parent="pmS_myywoiucnoMyzfQA-1">
          <mxGeometry x="187" y="210" width="20" height="20" as="geometry" />
        </mxCell>
        <mxCell id="pmS_myywoiucnoMyzfQA-7" value="" style="whiteSpace=wrap;html=1;aspect=fixed;fontStyle=1" vertex="1" parent="pmS_myywoiucnoMyzfQA-1">
          <mxGeometry x="217" y="230" width="50" height="50" as="geometry" />
        </mxCell>
        <mxCell id="pmS_myywoiucnoMyzfQA-8" value="" style="whiteSpace=wrap;html=1;aspect=fixed;fontStyle=1" vertex="1" parent="pmS_myywoiucnoMyzfQA-1">
          <mxGeometry x="267" y="230" width="50" height="50" as="geometry" />
        </mxCell>
        <mxCell id="pmS_myywoiucnoMyzfQA-9" value="" style="whiteSpace=wrap;html=1;aspect=fixed;fontStyle=1" vertex="1" parent="pmS_myywoiucnoMyzfQA-1">
          <mxGeometry x="317" y="230" width="50" height="50" as="geometry" />
        </mxCell>
        <mxCell id="pmS_myywoiucnoMyzfQA-10" value="" style="whiteSpace=wrap;html=1;aspect=fixed;fontStyle=1" vertex="1" parent="pmS_myywoiucnoMyzfQA-1">
          <mxGeometry x="362" y="230" width="50" height="50" as="geometry" />
        </mxCell>
        <mxCell id="pmS_myywoiucnoMyzfQA-11" value="" style="whiteSpace=wrap;html=1;aspect=fixed;fontStyle=1" vertex="1" parent="pmS_myywoiucnoMyzfQA-1">
          <mxGeometry x="412" y="230" width="50" height="50" as="geometry" />
        </mxCell>
        <mxCell id="pmS_myywoiucnoMyzfQA-12" value="" style="whiteSpace=wrap;html=1;aspect=fixed;fontStyle=1" vertex="1" parent="pmS_myywoiucnoMyzfQA-1">
          <mxGeometry x="460" y="230" width="50" height="50" as="geometry" />
        </mxCell>
        <mxCell id="pmS_myywoiucnoMyzfQA-13" value="" style="whiteSpace=wrap;html=1;aspect=fixed;fontStyle=1" vertex="1" parent="pmS_myywoiucnoMyzfQA-1">
          <mxGeometry x="505" y="230" width="50" height="50" as="geometry" />
        </mxCell>
        <mxCell id="pmS_myywoiucnoMyzfQA-14" value="" style="whiteSpace=wrap;html=1;aspect=fixed;fontStyle=1" vertex="1" parent="pmS_myywoiucnoMyzfQA-1">
          <mxGeometry x="555" y="230" width="50" height="50" as="geometry" />
        </mxCell>
        <mxCell id="pmS_myywoiucnoMyzfQA-15" value="" style="whiteSpace=wrap;html=1;aspect=fixed;fontStyle=1" vertex="1" parent="pmS_myywoiucnoMyzfQA-1">
          <mxGeometry x="605" y="230" width="50" height="50" as="geometry" />
        </mxCell>
        <mxCell id="pmS_myywoiucnoMyzfQA-16" value="1" style="text;html=1;align=center;verticalAlign=middle;whiteSpace=wrap;rounded=0;fontSize=16;fontStyle=1" vertex="1" parent="pmS_myywoiucnoMyzfQA-1">
          <mxGeometry x="232" y="210" width="20" height="20" as="geometry" />
        </mxCell>
        <mxCell id="pmS_myywoiucnoMyzfQA-17" value="2" style="text;html=1;align=center;verticalAlign=middle;whiteSpace=wrap;rounded=0;fontSize=16;fontStyle=1" vertex="1" parent="pmS_myywoiucnoMyzfQA-1">
          <mxGeometry x="282" y="210" width="20" height="20" as="geometry" />
        </mxCell>
        <mxCell id="pmS_myywoiucnoMyzfQA-18" value="3" style="text;html=1;align=center;verticalAlign=middle;whiteSpace=wrap;rounded=0;fontSize=16;fontStyle=1" vertex="1" parent="pmS_myywoiucnoMyzfQA-1">
          <mxGeometry x="331" y="210" width="20" height="20" as="geometry" />
        </mxCell>
        <mxCell id="pmS_myywoiucnoMyzfQA-19" value="4" style="text;html=1;align=center;verticalAlign=middle;whiteSpace=wrap;rounded=0;fontSize=16;fontStyle=1" vertex="1" parent="pmS_myywoiucnoMyzfQA-1">
          <mxGeometry x="377" y="210" width="20" height="20" as="geometry" />
        </mxCell>
        <mxCell id="pmS_myywoiucnoMyzfQA-20" value="5" style="text;html=1;align=center;verticalAlign=middle;whiteSpace=wrap;rounded=0;fontSize=16;fontStyle=1" vertex="1" parent="pmS_myywoiucnoMyzfQA-1">
          <mxGeometry x="427" y="210" width="20" height="20" as="geometry" />
        </mxCell>
        <mxCell id="pmS_myywoiucnoMyzfQA-21" value="6" style="text;html=1;align=center;verticalAlign=middle;whiteSpace=wrap;rounded=0;fontSize=16;fontStyle=1" vertex="1" parent="pmS_myywoiucnoMyzfQA-1">
          <mxGeometry x="475" y="210" width="20" height="20" as="geometry" />
        </mxCell>
        <mxCell id="pmS_myywoiucnoMyzfQA-22" value="7" style="text;html=1;align=center;verticalAlign=middle;whiteSpace=wrap;rounded=0;fontSize=16;fontStyle=1" vertex="1" parent="pmS_myywoiucnoMyzfQA-1">
          <mxGeometry x="520" y="210" width="20" height="20" as="geometry" />
        </mxCell>
        <mxCell id="pmS_myywoiucnoMyzfQA-23" value="8" style="text;html=1;align=center;verticalAlign=middle;whiteSpace=wrap;rounded=0;fontSize=16;fontStyle=1" vertex="1" parent="pmS_myywoiucnoMyzfQA-1">
          <mxGeometry x="570" y="210" width="20" height="20" as="geometry" />
        </mxCell>
        <mxCell id="pmS_myywoiucnoMyzfQA-24" value="9" style="text;html=1;align=center;verticalAlign=middle;whiteSpace=wrap;rounded=0;fontSize=16;fontStyle=1" vertex="1" parent="pmS_myywoiucnoMyzfQA-1">
          <mxGeometry x="620" y="210" width="20" height="20" as="geometry" />
        </mxCell>
        <mxCell id="pmS_myywoiucnoMyzfQA-25" value="-1" style="text;html=1;align=center;verticalAlign=middle;whiteSpace=wrap;rounded=0;fontSize=16;fontStyle=1" vertex="1" parent="pmS_myywoiucnoMyzfQA-1">
          <mxGeometry x="332" y="245" width="20" height="20" as="geometry" />
        </mxCell>
        <mxCell id="pmS_myywoiucnoMyzfQA-26" value="-1" style="text;html=1;align=center;verticalAlign=middle;whiteSpace=wrap;rounded=0;fontSize=16;fontStyle=1" vertex="1" parent="pmS_myywoiucnoMyzfQA-1">
          <mxGeometry x="232" y="245" width="20" height="20" as="geometry" />
        </mxCell>
        <mxCell id="pmS_myywoiucnoMyzfQA-27" value="21" style="text;html=1;align=center;verticalAlign=middle;whiteSpace=wrap;rounded=0;fontSize=16;fontStyle=1" vertex="1" parent="pmS_myywoiucnoMyzfQA-1">
          <mxGeometry x="282" y="245" width="20" height="20" as="geometry" />
        </mxCell>
        <mxCell id="pmS_myywoiucnoMyzfQA-28" value="7" style="text;html=1;align=center;verticalAlign=middle;whiteSpace=wrap;rounded=0;fontSize=16;fontStyle=1" vertex="1" parent="pmS_myywoiucnoMyzfQA-1">
          <mxGeometry x="520" y="245" width="20" height="20" as="geometry" />
        </mxCell>
        <mxCell id="pmS_myywoiucnoMyzfQA-29" value="60" style="text;html=1;align=center;verticalAlign=middle;whiteSpace=wrap;rounded=0;fontSize=16;fontStyle=1" vertex="1" parent="pmS_myywoiucnoMyzfQA-1">
          <mxGeometry x="187" y="245" width="20" height="20" as="geometry" />
        </mxCell>
        <mxCell id="pmS_myywoiucnoMyzfQA-30" value="3" style="text;html=1;align=center;verticalAlign=middle;whiteSpace=wrap;rounded=0;fontSize=16;fontStyle=1" vertex="1" parent="pmS_myywoiucnoMyzfQA-1">
          <mxGeometry x="377" y="245" width="20" height="20" as="geometry" />
        </mxCell>
        <mxCell id="pmS_myywoiucnoMyzfQA-31" value="81" style="text;html=1;align=center;verticalAlign=middle;whiteSpace=wrap;rounded=0;fontSize=16;fontStyle=1" vertex="1" parent="pmS_myywoiucnoMyzfQA-1">
          <mxGeometry x="427" y="245" width="20" height="20" as="geometry" />
        </mxCell>
        <mxCell id="pmS_myywoiucnoMyzfQA-32" value="52" style="text;html=1;align=center;verticalAlign=middle;whiteSpace=wrap;rounded=0;fontSize=16;fontStyle=1" vertex="1" parent="pmS_myywoiucnoMyzfQA-1">
          <mxGeometry x="475" y="245" width="20" height="20" as="geometry" />
        </mxCell>
        <mxCell id="pmS_myywoiucnoMyzfQA-33" value="49" style="text;html=1;align=center;verticalAlign=middle;whiteSpace=wrap;rounded=0;fontSize=16;fontStyle=1" vertex="1" parent="pmS_myywoiucnoMyzfQA-1">
          <mxGeometry x="620" y="245" width="20" height="20" as="geometry" />
        </mxCell>
        <mxCell id="pmS_myywoiucnoMyzfQA-34" value="33" style="text;html=1;align=center;verticalAlign=middle;whiteSpace=wrap;rounded=0;fontSize=16;fontStyle=1" vertex="1" parent="pmS_myywoiucnoMyzfQA-1">
          <mxGeometry x="570" y="245" width="20" height="20" as="geometry" />
        </mxCell>
      </root>
    </mxGraphModel>
  </diagram>
  <diagram name="14" id="xeQRxvnH9DNNvRGGaLtD">
    <mxGraphModel dx="1434" dy="780" grid="1" gridSize="10" guides="1" tooltips="1" connect="1" arrows="1" fold="1" page="1" pageScale="1" pageWidth="827" pageHeight="1169" math="0" shadow="0">
      <root>
        <mxCell id="i-WxVS7yeg_wGMaMQM-J-0" />
        <mxCell id="i-WxVS7yeg_wGMaMQM-J-1" parent="i-WxVS7yeg_wGMaMQM-J-0" />
        <mxCell id="i-WxVS7yeg_wGMaMQM-J-2" value="Tamanho = 10" style="text;html=1;align=center;verticalAlign=middle;whiteSpace=wrap;rounded=0;fontSize=16;fontStyle=1" vertex="1" parent="i-WxVS7yeg_wGMaMQM-J-1">
          <mxGeometry x="354" y="50" width="119" height="30" as="geometry" />
        </mxCell>
        <mxCell id="i-WxVS7yeg_wGMaMQM-J-3" value="FIM!" style="rounded=1;whiteSpace=wrap;html=1;fontSize=16;fontStyle=1" vertex="1" parent="i-WxVS7yeg_wGMaMQM-J-1">
          <mxGeometry x="680" y="40" width="110" height="40" as="geometry" />
        </mxCell>
        <mxCell id="i-WxVS7yeg_wGMaMQM-J-5" value="" style="whiteSpace=wrap;html=1;aspect=fixed;fontStyle=1" vertex="1" parent="i-WxVS7yeg_wGMaMQM-J-1">
          <mxGeometry x="172" y="230" width="50" height="50" as="geometry" />
        </mxCell>
        <mxCell id="i-WxVS7yeg_wGMaMQM-J-6" value="0" style="text;html=1;align=center;verticalAlign=middle;whiteSpace=wrap;rounded=0;fontSize=16;fontStyle=1" vertex="1" parent="i-WxVS7yeg_wGMaMQM-J-1">
          <mxGeometry x="187" y="210" width="20" height="20" as="geometry" />
        </mxCell>
        <mxCell id="i-WxVS7yeg_wGMaMQM-J-7" value="" style="whiteSpace=wrap;html=1;aspect=fixed;fontStyle=1" vertex="1" parent="i-WxVS7yeg_wGMaMQM-J-1">
          <mxGeometry x="217" y="230" width="50" height="50" as="geometry" />
        </mxCell>
        <mxCell id="i-WxVS7yeg_wGMaMQM-J-8" value="" style="whiteSpace=wrap;html=1;aspect=fixed;fontStyle=1" vertex="1" parent="i-WxVS7yeg_wGMaMQM-J-1">
          <mxGeometry x="267" y="230" width="50" height="50" as="geometry" />
        </mxCell>
        <mxCell id="i-WxVS7yeg_wGMaMQM-J-9" value="" style="whiteSpace=wrap;html=1;aspect=fixed;fontStyle=1" vertex="1" parent="i-WxVS7yeg_wGMaMQM-J-1">
          <mxGeometry x="317" y="230" width="50" height="50" as="geometry" />
        </mxCell>
        <mxCell id="i-WxVS7yeg_wGMaMQM-J-10" value="" style="whiteSpace=wrap;html=1;aspect=fixed;fontStyle=1" vertex="1" parent="i-WxVS7yeg_wGMaMQM-J-1">
          <mxGeometry x="362" y="230" width="50" height="50" as="geometry" />
        </mxCell>
        <mxCell id="i-WxVS7yeg_wGMaMQM-J-11" value="" style="whiteSpace=wrap;html=1;aspect=fixed;fontStyle=1" vertex="1" parent="i-WxVS7yeg_wGMaMQM-J-1">
          <mxGeometry x="412" y="230" width="50" height="50" as="geometry" />
        </mxCell>
        <mxCell id="i-WxVS7yeg_wGMaMQM-J-12" value="" style="whiteSpace=wrap;html=1;aspect=fixed;fontStyle=1" vertex="1" parent="i-WxVS7yeg_wGMaMQM-J-1">
          <mxGeometry x="460" y="230" width="50" height="50" as="geometry" />
        </mxCell>
        <mxCell id="i-WxVS7yeg_wGMaMQM-J-13" value="" style="whiteSpace=wrap;html=1;aspect=fixed;fontStyle=1" vertex="1" parent="i-WxVS7yeg_wGMaMQM-J-1">
          <mxGeometry x="505" y="230" width="50" height="50" as="geometry" />
        </mxCell>
        <mxCell id="i-WxVS7yeg_wGMaMQM-J-14" value="" style="whiteSpace=wrap;html=1;aspect=fixed;fontStyle=1" vertex="1" parent="i-WxVS7yeg_wGMaMQM-J-1">
          <mxGeometry x="555" y="230" width="50" height="50" as="geometry" />
        </mxCell>
        <mxCell id="i-WxVS7yeg_wGMaMQM-J-15" value="" style="whiteSpace=wrap;html=1;aspect=fixed;fontStyle=1" vertex="1" parent="i-WxVS7yeg_wGMaMQM-J-1">
          <mxGeometry x="605" y="230" width="50" height="50" as="geometry" />
        </mxCell>
        <mxCell id="i-WxVS7yeg_wGMaMQM-J-16" value="1" style="text;html=1;align=center;verticalAlign=middle;whiteSpace=wrap;rounded=0;fontSize=16;fontStyle=1" vertex="1" parent="i-WxVS7yeg_wGMaMQM-J-1">
          <mxGeometry x="232" y="210" width="20" height="20" as="geometry" />
        </mxCell>
        <mxCell id="i-WxVS7yeg_wGMaMQM-J-17" value="2" style="text;html=1;align=center;verticalAlign=middle;whiteSpace=wrap;rounded=0;fontSize=16;fontStyle=1" vertex="1" parent="i-WxVS7yeg_wGMaMQM-J-1">
          <mxGeometry x="282" y="210" width="20" height="20" as="geometry" />
        </mxCell>
        <mxCell id="i-WxVS7yeg_wGMaMQM-J-18" value="3" style="text;html=1;align=center;verticalAlign=middle;whiteSpace=wrap;rounded=0;fontSize=16;fontStyle=1" vertex="1" parent="i-WxVS7yeg_wGMaMQM-J-1">
          <mxGeometry x="331" y="210" width="20" height="20" as="geometry" />
        </mxCell>
        <mxCell id="i-WxVS7yeg_wGMaMQM-J-19" value="4" style="text;html=1;align=center;verticalAlign=middle;whiteSpace=wrap;rounded=0;fontSize=16;fontStyle=1" vertex="1" parent="i-WxVS7yeg_wGMaMQM-J-1">
          <mxGeometry x="377" y="210" width="20" height="20" as="geometry" />
        </mxCell>
        <mxCell id="i-WxVS7yeg_wGMaMQM-J-20" value="5" style="text;html=1;align=center;verticalAlign=middle;whiteSpace=wrap;rounded=0;fontSize=16;fontStyle=1" vertex="1" parent="i-WxVS7yeg_wGMaMQM-J-1">
          <mxGeometry x="427" y="210" width="20" height="20" as="geometry" />
        </mxCell>
        <mxCell id="i-WxVS7yeg_wGMaMQM-J-21" value="6" style="text;html=1;align=center;verticalAlign=middle;whiteSpace=wrap;rounded=0;fontSize=16;fontStyle=1" vertex="1" parent="i-WxVS7yeg_wGMaMQM-J-1">
          <mxGeometry x="475" y="210" width="20" height="20" as="geometry" />
        </mxCell>
        <mxCell id="i-WxVS7yeg_wGMaMQM-J-22" value="7" style="text;html=1;align=center;verticalAlign=middle;whiteSpace=wrap;rounded=0;fontSize=16;fontStyle=1" vertex="1" parent="i-WxVS7yeg_wGMaMQM-J-1">
          <mxGeometry x="520" y="210" width="20" height="20" as="geometry" />
        </mxCell>
        <mxCell id="i-WxVS7yeg_wGMaMQM-J-23" value="8" style="text;html=1;align=center;verticalAlign=middle;whiteSpace=wrap;rounded=0;fontSize=16;fontStyle=1" vertex="1" parent="i-WxVS7yeg_wGMaMQM-J-1">
          <mxGeometry x="570" y="210" width="20" height="20" as="geometry" />
        </mxCell>
        <mxCell id="i-WxVS7yeg_wGMaMQM-J-24" value="9" style="text;html=1;align=center;verticalAlign=middle;whiteSpace=wrap;rounded=0;fontSize=16;fontStyle=1" vertex="1" parent="i-WxVS7yeg_wGMaMQM-J-1">
          <mxGeometry x="620" y="210" width="20" height="20" as="geometry" />
        </mxCell>
        <mxCell id="i-WxVS7yeg_wGMaMQM-J-25" value="-1" style="text;html=1;align=center;verticalAlign=middle;whiteSpace=wrap;rounded=0;fontSize=16;fontStyle=1" vertex="1" parent="i-WxVS7yeg_wGMaMQM-J-1">
          <mxGeometry x="332" y="245" width="20" height="20" as="geometry" />
        </mxCell>
        <mxCell id="i-WxVS7yeg_wGMaMQM-J-26" value="-1" style="text;html=1;align=center;verticalAlign=middle;whiteSpace=wrap;rounded=0;fontSize=16;fontStyle=1" vertex="1" parent="i-WxVS7yeg_wGMaMQM-J-1">
          <mxGeometry x="232" y="245" width="20" height="20" as="geometry" />
        </mxCell>
        <mxCell id="i-WxVS7yeg_wGMaMQM-J-27" value="21" style="text;html=1;align=center;verticalAlign=middle;whiteSpace=wrap;rounded=0;fontSize=16;fontStyle=1" vertex="1" parent="i-WxVS7yeg_wGMaMQM-J-1">
          <mxGeometry x="282" y="245" width="20" height="20" as="geometry" />
        </mxCell>
        <mxCell id="i-WxVS7yeg_wGMaMQM-J-28" value="7" style="text;html=1;align=center;verticalAlign=middle;whiteSpace=wrap;rounded=0;fontSize=16;fontStyle=1" vertex="1" parent="i-WxVS7yeg_wGMaMQM-J-1">
          <mxGeometry x="520" y="245" width="20" height="20" as="geometry" />
        </mxCell>
        <mxCell id="i-WxVS7yeg_wGMaMQM-J-29" value="60" style="text;html=1;align=center;verticalAlign=middle;whiteSpace=wrap;rounded=0;fontSize=16;fontStyle=1" vertex="1" parent="i-WxVS7yeg_wGMaMQM-J-1">
          <mxGeometry x="187" y="245" width="20" height="20" as="geometry" />
        </mxCell>
        <mxCell id="i-WxVS7yeg_wGMaMQM-J-30" value="3" style="text;html=1;align=center;verticalAlign=middle;whiteSpace=wrap;rounded=0;fontSize=16;fontStyle=1" vertex="1" parent="i-WxVS7yeg_wGMaMQM-J-1">
          <mxGeometry x="377" y="245" width="20" height="20" as="geometry" />
        </mxCell>
        <mxCell id="i-WxVS7yeg_wGMaMQM-J-31" value="81" style="text;html=1;align=center;verticalAlign=middle;whiteSpace=wrap;rounded=0;fontSize=16;fontStyle=1" vertex="1" parent="i-WxVS7yeg_wGMaMQM-J-1">
          <mxGeometry x="427" y="245" width="20" height="20" as="geometry" />
        </mxCell>
        <mxCell id="i-WxVS7yeg_wGMaMQM-J-32" value="52" style="text;html=1;align=center;verticalAlign=middle;whiteSpace=wrap;rounded=0;fontSize=16;fontStyle=1" vertex="1" parent="i-WxVS7yeg_wGMaMQM-J-1">
          <mxGeometry x="475" y="245" width="20" height="20" as="geometry" />
        </mxCell>
        <mxCell id="i-WxVS7yeg_wGMaMQM-J-33" value="49" style="text;html=1;align=center;verticalAlign=middle;whiteSpace=wrap;rounded=0;fontSize=16;fontStyle=1" vertex="1" parent="i-WxVS7yeg_wGMaMQM-J-1">
          <mxGeometry x="620" y="245" width="20" height="20" as="geometry" />
        </mxCell>
        <mxCell id="i-WxVS7yeg_wGMaMQM-J-34" value="33" style="text;html=1;align=center;verticalAlign=middle;whiteSpace=wrap;rounded=0;fontSize=16;fontStyle=1" vertex="1" parent="i-WxVS7yeg_wGMaMQM-J-1">
          <mxGeometry x="570" y="245" width="20" height="20" as="geometry" />
        </mxCell>
      </root>
    </mxGraphModel>
  </diagram>
</mxfile>
